<svg width="20" height="21" viewBox="0 0 20 21" fill="none" xmlns="http://www.w3.org/2000/svg">
<rect width="20" height="20" transform="translate(0 0.0678711)" fill="#005B96"/>
<path d="M13.8337 11.7345C13.667 11.6511 12.5837 11.1511 12.417 11.0678C12.2503 10.9845 12.0837 10.9845 11.917 11.1511C11.7503 11.3178 11.417 11.8178 11.2503 11.9845C11.167 12.1511 11.0003 12.1511 10.8337 12.0678C10.2503 11.8178 9.66699 11.4845 9.16699 11.0678C8.75033 10.6511 8.33366 10.1511 8.00033 9.65112C7.91699 9.48446 8.00033 9.31779 8.08366 9.23446C8.16699 9.15112 8.25033 8.98446 8.41699 8.90112C8.50033 8.81779 8.58366 8.65112 8.58366 8.56779C8.66699 8.48446 8.66699 8.31779 8.58366 8.23446C8.50033 8.15112 8.08366 7.15112 7.91699 6.73446C7.83366 6.15112 7.66699 6.15112 7.50033 6.15112C7.41699 6.15112 7.25033 6.15112 7.08366 6.15112C6.91699 6.15112 6.66699 6.31779 6.58366 6.40112C6.08366 6.90112 5.83366 7.48446 5.83366 8.15112C5.91699 8.90112 6.16699 9.65112 6.66699 10.3178C7.58366 11.6511 8.75033 12.7345 10.167 13.4011C10.5837 13.5678 10.917 13.7345 11.3337 13.8178C11.7503 13.9845 12.167 13.9845 12.667 13.9011C13.2503 13.8178 13.7503 13.4011 14.0837 12.9011C14.2503 12.5678 14.2503 12.2345 14.167 11.9011C14.167 11.9011 14.0003 11.8178 13.8337 11.7345ZM15.917 4.15112C12.667 0.901123 7.41699 0.901123 4.16699 4.15112C1.50033 6.81779 1.00033 10.9011 2.83366 14.1511L1.66699 18.4011L6.08366 17.2345C7.33366 17.9011 8.66699 18.2345 10.0003 18.2345C14.5837 18.2345 18.2503 14.5678 18.2503 9.98446C18.3337 7.81779 17.417 5.73446 15.917 4.15112ZM13.667 15.8178C12.5837 16.4845 11.3337 16.9011 10.0003 16.9011C8.75033 16.9011 7.58366 16.5678 6.50033 15.9845L6.25033 15.8178L3.66699 16.4845L4.33366 13.9845L4.16699 13.7345C2.16699 10.4011 3.16699 6.23446 6.41699 4.15112C9.66699 2.06779 13.8337 3.15112 15.8337 6.31779C17.8337 9.56779 16.917 13.8178 13.667 15.8178Z" fill="white"/>
</svg>
