<svg width="25" height="25" viewBox="0 0 25 25" fill="none" xmlns="http://www.w3.org/2000/svg">
<g clip-path="url(#clip0_219_151)">
<path fill-rule="evenodd" clip-rule="evenodd" d="M12.5 2.9314C10.3783 2.9314 8.34344 3.77425 6.84315 5.27454C5.34285 6.77483 4.5 8.80966 4.5 10.9314C4.5 14.0295 6.51574 17.0356 8.72595 19.3687C9.81061 20.5136 10.8987 21.4509 11.7167 22.1022C12.0211 22.3447 12.287 22.5466 12.5 22.704C12.713 22.5466 12.9789 22.3447 13.2833 22.1022C14.1013 21.4509 15.1894 20.5136 16.274 19.3687C18.4843 17.0356 20.5 14.0295 20.5 10.9314C20.5 8.80966 19.6571 6.77483 18.1569 5.27454C16.6566 3.77425 14.6217 2.9314 12.5 2.9314ZM12.5 23.9314C11.9453 24.7634 11.945 24.7633 11.9448 24.7631L11.9419 24.7612L11.9352 24.7567L11.9123 24.7412C11.8928 24.728 11.8651 24.709 11.8296 24.6844C11.7585 24.6352 11.6565 24.5635 11.5278 24.4706C11.2705 24.2848 10.9064 24.0136 10.4708 23.6668C9.60133 22.9744 8.43939 21.9742 7.27405 20.7441C4.98426 18.3271 2.5 14.8333 2.5 10.9314C2.5 8.27923 3.55357 5.73569 5.42893 3.86033C7.3043 1.98496 9.84784 0.931396 12.5 0.931396C15.1522 0.931396 17.6957 1.98496 19.5711 3.86033C21.4464 5.73569 22.5 8.27923 22.5 10.9314C22.5 14.8333 20.0157 18.3271 17.726 20.7441C16.5606 21.9742 15.3987 22.9744 14.5292 23.6668C14.0936 24.0136 13.7295 24.2848 13.4722 24.4706C13.3435 24.5635 13.2415 24.6352 13.1704 24.6844C13.1349 24.709 13.1072 24.728 13.0877 24.7412L13.0648 24.7567L13.0581 24.7612L13.056 24.7626C13.0557 24.7628 13.0547 24.7634 12.5 23.9314ZM12.5 23.9314L13.0547 24.7634C12.7188 24.9874 12.2807 24.987 11.9448 24.7631L12.5 23.9314Z" fill="#03396C"/>
<path fill-rule="evenodd" clip-rule="evenodd" d="M17.5 10.9314C17.5 13.6928 15.2614 15.9314 12.5 15.9314C9.73858 15.9314 7.5 13.6928 7.5 10.9314C7.5 8.16997 9.73858 5.9314 12.5 5.9314C15.2614 5.9314 17.5 8.16997 17.5 10.9314ZM15.5 10.9314C15.5 12.5883 14.1569 13.9314 12.5 13.9314C10.8431 13.9314 9.5 12.5883 9.5 10.9314C9.5 9.27454 10.8431 7.9314 12.5 7.9314C14.1569 7.9314 15.5 9.27454 15.5 10.9314Z" fill="#03396C"/>
</g>
<defs>
<clipPath id="clip0_219_151">
<rect width="24" height="24" fill="white" transform="translate(0.5 0.931396)"/>
</clipPath>
</defs>
</svg>
