<svg width="25" height="25" viewBox="0 0 25 25" fill="none" xmlns="http://www.w3.org/2000/svg">
<path d="M17.1 14.068C16.9 13.968 15.6 13.368 15.4 13.268C15.2 13.168 15 13.168 14.8 13.368C14.6 13.568 14.2 14.168 14 14.368C13.9 14.568 13.7 14.568 13.5 14.468C12.8 14.168 12.1 13.768 11.5 13.268C11 12.768 10.5 12.168 10.1 11.568C10 11.368 10.1 11.168 10.2 11.068C10.3 10.968 10.4 10.768 10.6 10.668C10.7 10.568 10.8 10.368 10.8 10.268C10.9 10.168 10.9 9.96797 10.8 9.86797C10.7 9.76797 10.2 8.56797 10 8.06797C9.9 7.36797 9.7 7.36797 9.5 7.36797C9.4 7.36797 9.2 7.36797 9 7.36797C8.8 7.36797 8.5 7.56797 8.4 7.66797C7.8 8.26797 7.5 8.96797 7.5 9.76797C7.6 10.668 7.9 11.568 8.5 12.368C9.6 13.968 11 15.268 12.7 16.068C13.2 16.268 13.6 16.468 14.1 16.568C14.6 16.768 15.1 16.768 15.7 16.668C16.4 16.568 17 16.068 17.4 15.468C17.6 15.068 17.6 14.668 17.5 14.268C17.5 14.268 17.3 14.168 17.1 14.068ZM19.6 4.96797C15.7 1.06797 9.4 1.06797 5.5 4.96797C2.3 8.16797 1.7 13.068 3.9 16.968L2.5 22.068L7.8 20.668C9.3 21.468 10.9 21.868 12.5 21.868C18 21.868 22.4 17.468 22.4 11.968C22.5 9.36797 21.4 6.86797 19.6 4.96797ZM16.9 18.968C15.6 19.768 14.1 20.268 12.5 20.268C11 20.268 9.6 19.868 8.3 19.168L8 18.968L4.9 19.768L5.7 16.768L5.5 16.468C3.1 12.468 4.3 7.46797 8.2 4.96797C12.1 2.46797 17.1 3.76797 19.5 7.56797C21.9 11.468 20.8 16.568 16.9 18.968Z" fill="#03396C"/>
</svg>
