<svg width="97" height="16" viewBox="0 0 97 16" fill="none" xmlns="http://www.w3.org/2000/svg">
<path fill-rule="evenodd" clip-rule="evenodd" d="M1.06934 15.3672L4.83496 4.45312H7.80762L11.5654 15.3672H9.10059L8.28809 12.8828H4.34668L3.54199 15.3711L1.06934 15.3672ZM6.27637 6.95312L4.93652 11.0781L7.69824 11.0742L6.3623 6.95312H6.27637Z" fill="#03396C"/>
<path fill-rule="evenodd" clip-rule="evenodd" d="M77.5484 15.4226L81.314 4.50852H84.2867L88.0445 15.4226H85.5797L84.7672 12.9382H80.8258L80.0211 15.4265L77.5484 15.4226ZM82.7554 7.00851L81.4156 11.1335L84.1773 11.1296L82.8414 7.00851H82.7554Z" fill="#03396C"/>
<path d="M17.4404 11.2852V9.55078H21.999V11.1523L21.9756 11.4883L21.9326 11.8711L21.8857 12.125L21.8115 12.3984L21.7217 12.6992L21.6006 12.9922L21.4053 13.3828L21.2334 13.6602L21.0576 13.8828L20.9053 14.0703L20.7139 14.2734L20.5029 14.4648L20.292 14.6289L19.9287 14.875L19.6553 15.0234L19.417 15.1328L19.1592 15.2344L18.8271 15.3398L18.4678 15.4297L18.21 15.4688L17.9326 15.5078L17.6787 15.5273L17.4209 15.5469H17.1631L16.874 15.5273L16.5693 15.5078L16.2764 15.4688L16.0732 15.4297L15.7881 15.3633L15.5225 15.2773L15.1943 15.1602L14.9365 15.0508L14.7334 14.9453L14.5264 14.8359L14.335 14.707L14.1396 14.5781L13.9834 14.4414L13.7373 14.2227L13.5107 14.0039L13.3428 13.8086L13.1787 13.5898L13.0303 13.375L12.8311 13.0469L12.6475 12.6758L12.4795 12.2461L12.374 11.9102L12.292 11.5547L12.2295 11.2148L12.1904 10.9648L12.1592 10.7148L12.1318 10.1133V9.71875L12.1514 9.39844L12.1787 9.07813L12.2217 8.69141L12.2998 8.31641L12.3857 7.97656L12.46 7.72656L12.5537 7.47266L12.6943 7.13672L12.874 6.80469L13.0771 6.46484L13.292 6.16797L13.5146 5.90234L13.7373 5.67578L13.9248 5.49609L14.1396 5.32812L14.3975 5.14453L14.71 4.95312L15.0146 4.80078L15.3271 4.66406L15.7607 4.52734L16.124 4.43359L16.5576 4.36719L16.8311 4.34375L17.0889 4.32422H17.3271L17.6709 4.34375L17.9912 4.36719L18.2178 4.41016L18.4482 4.45703L18.7334 4.52734L19.0186 4.625L19.2803 4.72266L19.5615 4.84766L19.8389 4.99219L20.0811 5.14453L20.3389 5.32422L20.5576 5.51172L20.7529 5.69141L20.9326 5.89062L21.1357 6.13672L21.2959 6.37109L21.4521 6.61719L21.5928 6.91016L21.6943 7.16406L21.7646 7.39062L21.8076 7.53516L21.8662 7.80078L21.9014 8.01172H19.5576L19.5029 7.83984L19.4326 7.66406L19.3506 7.49219L19.2373 7.30859L19.0693 7.10547L18.9209 6.95312L18.7412 6.80469L18.4717 6.63672L18.2373 6.53516L17.9834 6.45312L17.624 6.38672L17.2646 6.36719L16.9521 6.38672L16.6553 6.43359L16.2959 6.53516L16.0615 6.63672L15.8193 6.77734L15.624 6.91797L15.4248 7.08984L15.2646 7.27344L15.0576 7.54688L14.8896 7.84375L14.7607 8.12891L14.6553 8.4375L14.585 8.71875L14.5381 8.99219L14.4912 9.32813L14.4639 9.78906V9.96875L14.4912 10.5508L14.5381 10.8633L14.6162 11.2734L14.7334 11.6484L14.874 12.0078L15.0771 12.3633L15.2686 12.6055L15.46 12.8164L15.6865 13.0117L15.9014 13.1523L16.1045 13.2617L16.3076 13.3398L16.4756 13.3945L16.6904 13.4453L16.9482 13.4805L17.1943 13.5H17.4404L17.6631 13.4805L17.9326 13.4453L18.1709 13.3945L18.4014 13.3164L18.6318 13.2188L18.8545 13.0938L19.0498 12.9492L19.2295 12.7773L19.3662 12.6094L19.4795 12.4336L19.5771 12.2383L19.6748 11.9922L19.7373 11.6953L19.7764 11.4414V11.2852H17.4404Z" fill="#03396C"/>
<path fill-rule="evenodd" clip-rule="evenodd" d="M34.0889 15.3672L37.8545 4.45312H40.8271L44.585 15.3672H42.1201L41.3076 12.8828H37.3662L36.5615 15.3711L34.0889 15.3672ZM39.2959 6.95312L37.9561 11.0781L40.7178 11.0742L39.3818 6.95312H39.2959Z" fill="#03396C"/>
<path d="M5.47266 3.42188L6.60938 1H8.69922L7.08594 3.42188H5.47266Z" fill="#03396C"/>
<path d="M72.2094 11.2944V9.56006H76.768V11.1616L76.7446 11.4976L76.7016 11.8804L76.6548 12.1343L76.5805 12.4077L76.4907 12.7085L76.3696 13.0015L76.1743 13.3921L76.0024 13.6694L75.8266 13.8921L75.6743 14.0796L75.4829 14.2827L75.2719 14.4741L75.061 14.6382L74.6977 14.8843L74.4243 15.0327L74.186 15.1421L73.9282 15.2437L73.5962 15.3491L73.2368 15.439L72.979 15.478L72.7016 15.5171L72.4477 15.5366L72.1899 15.5562H71.9321L71.643 15.5366L71.3383 15.5171L71.0454 15.478L70.8423 15.439L70.5571 15.3726L70.2915 15.2866L69.9633 15.1694L69.7055 15.0601L69.5024 14.9546L69.2954 14.8452L69.104 14.7163L68.9087 14.5874L68.7524 14.4507L68.5063 14.2319L68.2798 14.0132L68.1118 13.8179L67.9477 13.5991L67.7993 13.3843L67.6001 13.0562L67.4165 12.6851L67.2485 12.2554L67.143 11.9194L67.061 11.564L66.9985 11.2241L66.9594 10.9741L66.9282 10.7241L66.9008 10.1226V9.72803L66.9204 9.40771L66.9477 9.0874L66.9907 8.70068L67.0688 8.32568L67.1548 7.98584L67.229 7.73584L67.3227 7.48193L67.4633 7.14599L67.643 6.81396L67.8462 6.47412L68.061 6.17724L68.2837 5.91162L68.5063 5.68506L68.6938 5.50537L68.9087 5.3374L69.1665 5.15381L69.479 4.9624L69.7837 4.81006L70.0962 4.67334L70.5298 4.53662L70.893 4.44287L71.3266 4.37646L71.6001 4.35303L71.8579 4.33349H72.0962L72.4399 4.35303L72.7602 4.37646L72.9868 4.41943L73.2173 4.46631L73.5024 4.53662L73.7876 4.63428L74.0493 4.73193L74.3305 4.85693L74.6079 5.00146L74.8501 5.15381L75.1079 5.33349L75.3266 5.52099L75.5219 5.70068L75.7016 5.8999L75.9048 6.14599L76.0649 6.38037L76.2212 6.62646L76.3618 6.91943L76.4633 7.17334L76.5337 7.3999L76.5766 7.54443L76.6352 7.81006L76.6704 8.02099H74.3266L74.2719 7.84912L74.2016 7.67334L74.1196 7.50146L74.0063 7.31787L73.8383 7.11474L73.6899 6.9624L73.5102 6.81396L73.2407 6.64599L73.0063 6.54443L72.7524 6.4624L72.393 6.39599L72.0337 6.37646L71.7212 6.39599L71.4243 6.44287L71.0649 6.54443L70.8305 6.64599L70.5883 6.78662L70.393 6.92724L70.1938 7.09912L70.0337 7.28271L69.8266 7.55615L69.6587 7.85303L69.5298 8.13818L69.4243 8.44678L69.354 8.72803L69.3071 9.00146L69.2602 9.3374L69.2329 9.79834V9.97803L69.2602 10.5601L69.3071 10.8726L69.3852 11.2827L69.5024 11.6577L69.643 12.0171L69.8462 12.3726L70.0376 12.6147L70.229 12.8257L70.4555 13.021L70.6704 13.1616L70.8735 13.271L71.0766 13.3491L71.2446 13.4038L71.4594 13.4546L71.7173 13.4897L71.9633 13.5093H72.2094L72.4321 13.4897L72.7016 13.4546L72.9399 13.4038L73.1704 13.3257L73.4008 13.228L73.6235 13.103L73.8188 12.9585L73.9985 12.7866L74.1352 12.6187L74.2485 12.4429L74.3462 12.2476L74.4438 12.0015L74.5063 11.7046L74.5454 11.4507V11.2944H72.2094Z" fill="#03396C"/>
<path d="M49.3867 15.3906V4.48438H51.6875V13.4883H56.3711V15.3906H49.3867Z" fill="#03396C"/>
<path d="M89.3746 15.3934V4.48718H91.6753V13.4911H96.3589V15.3934H89.3746Z" fill="#03396C"/>
<path d="M57.8984 15.3906V4.48438H65.2461V6.38281H60.2031V8.97656H64.8672V10.8789H60.2031V13.4883H65.2656V15.3906H57.8984Z" fill="#03396C"/>
<path d="M23.75 4.48047H26.0547V11.4531L26.0781 11.6875L26.1211 11.9375L26.2188 12.2539L26.3477 12.5078L26.4961 12.7344L26.6641 12.9141L26.8711 13.0898L27.0977 13.2344L27.3398 13.3477L27.5664 13.4258L27.8047 13.4766L28.0703 13.5117H28.3906L28.7344 13.4766L29 13.4258L29.207 13.3477L29.4492 13.2344L29.6836 13.082L29.8828 12.9141L30.0312 12.7383L30.1836 12.5273L30.3008 12.3008L30.4062 12.0078L30.4609 11.7539L30.4883 11.4297V4.48047H32.793V11.6367V11.8242L32.7617 12.1055L32.7188 12.4102L32.6406 12.7383L32.5039 13.1133L32.3984 13.3477L32.2695 13.5859L32.1016 13.8438L31.8984 14.0977L31.6953 14.3086L31.4883 14.5078L31.2383 14.7031L31.0273 14.8438L30.8242 14.957L30.5703 15.0859L30.2578 15.2188L29.9414 15.3242L29.6172 15.4102L29.3242 15.4727L28.918 15.5234L28.5312 15.5469H28.1406H27.793L27.4219 15.5039L27.0586 15.4414L26.6406 15.3438L26.2617 15.2266L25.9297 15.0703L25.6016 14.8906L25.3594 14.7422L25.1094 14.5547L24.8711 14.3359L24.6836 14.1367L24.4727 13.8789L24.2891 13.6133L24.1055 13.2812L23.9844 13L23.8711 12.6367L23.8203 12.3984L23.7773 12.1211L23.7539 11.7852L23.75 4.48047Z" fill="#03396C"/>
<path fill-rule="evenodd" clip-rule="evenodd" d="M1.06934 15.3672L4.83496 4.45312H7.80762L11.5654 15.3672H9.10059L8.28809 12.8828H4.34668L3.54199 15.3711L1.06934 15.3672ZM6.27637 6.95312L4.93652 11.0781L7.69824 11.0742L6.3623 6.95312H6.27637Z" stroke="#011F4B" stroke-width="0.5"/>
<path fill-rule="evenodd" clip-rule="evenodd" d="M77.5484 15.4226L81.314 4.50852H84.2867L88.0445 15.4226H85.5797L84.7672 12.9382H80.8258L80.0211 15.4265L77.5484 15.4226ZM82.7554 7.00851L81.4156 11.1335L84.1773 11.1296L82.8414 7.00851H82.7554Z" stroke="#011F4B" stroke-width="0.5"/>
<path d="M17.4404 11.2852V9.55078H21.999V11.1523L21.9756 11.4883L21.9326 11.8711L21.8857 12.125L21.8115 12.3984L21.7217 12.6992L21.6006 12.9922L21.4053 13.3828L21.2334 13.6602L21.0576 13.8828L20.9053 14.0703L20.7139 14.2734L20.5029 14.4648L20.292 14.6289L19.9287 14.875L19.6553 15.0234L19.417 15.1328L19.1592 15.2344L18.8271 15.3398L18.4678 15.4297L18.21 15.4688L17.9326 15.5078L17.6787 15.5273L17.4209 15.5469H17.1631L16.874 15.5273L16.5693 15.5078L16.2764 15.4688L16.0732 15.4297L15.7881 15.3633L15.5225 15.2773L15.1943 15.1602L14.9365 15.0508L14.7334 14.9453L14.5264 14.8359L14.335 14.707L14.1396 14.5781L13.9834 14.4414L13.7373 14.2227L13.5107 14.0039L13.3428 13.8086L13.1787 13.5898L13.0303 13.375L12.8311 13.0469L12.6475 12.6758L12.4795 12.2461L12.374 11.9102L12.292 11.5547L12.2295 11.2148L12.1904 10.9648L12.1592 10.7148L12.1318 10.1133V9.71875L12.1514 9.39844L12.1787 9.07813L12.2217 8.69141L12.2998 8.31641L12.3857 7.97656L12.46 7.72656L12.5537 7.47266L12.6943 7.13672L12.874 6.80469L13.0771 6.46484L13.292 6.16797L13.5146 5.90234L13.7373 5.67578L13.9248 5.49609L14.1396 5.32812L14.3975 5.14453L14.71 4.95312L15.0146 4.80078L15.3271 4.66406L15.7607 4.52734L16.124 4.43359L16.5576 4.36719L16.8311 4.34375L17.0889 4.32422H17.3271L17.6709 4.34375L17.9912 4.36719L18.2178 4.41016L18.4482 4.45703L18.7334 4.52734L19.0186 4.625L19.2803 4.72266L19.5615 4.84766L19.8389 4.99219L20.0811 5.14453L20.3389 5.32422L20.5576 5.51172L20.7529 5.69141L20.9326 5.89062L21.1357 6.13672L21.2959 6.37109L21.4521 6.61719L21.5928 6.91016L21.6943 7.16406L21.7646 7.39062L21.8076 7.53516L21.8662 7.80078L21.9014 8.01172H19.5576L19.5029 7.83984L19.4326 7.66406L19.3506 7.49219L19.2373 7.30859L19.0693 7.10547L18.9209 6.95312L18.7412 6.80469L18.4717 6.63672L18.2373 6.53516L17.9834 6.45312L17.624 6.38672L17.2646 6.36719L16.9521 6.38672L16.6553 6.43359L16.2959 6.53516L16.0615 6.63672L15.8193 6.77734L15.624 6.91797L15.4248 7.08984L15.2646 7.27344L15.0576 7.54688L14.8896 7.84375L14.7607 8.12891L14.6553 8.4375L14.585 8.71875L14.5381 8.99219L14.4912 9.32813L14.4639 9.78906V9.96875L14.4912 10.5508L14.5381 10.8633L14.6162 11.2734L14.7334 11.6484L14.874 12.0078L15.0771 12.3633L15.2686 12.6055L15.46 12.8164L15.6865 13.0117L15.9014 13.1523L16.1045 13.2617L16.3076 13.3398L16.4756 13.3945L16.6904 13.4453L16.9482 13.4805L17.1943 13.5H17.4404L17.6631 13.4805L17.9326 13.4453L18.1709 13.3945L18.4014 13.3164L18.6318 13.2188L18.8545 13.0938L19.0498 12.9492L19.2295 12.7773L19.3662 12.6094L19.4795 12.4336L19.5771 12.2383L19.6748 11.9922L19.7373 11.6953L19.7764 11.4414V11.2852H17.4404Z" stroke="#011F4B" stroke-width="0.5"/>
<path fill-rule="evenodd" clip-rule="evenodd" d="M34.0889 15.3672L37.8545 4.45312H40.8271L44.585 15.3672H42.1201L41.3076 12.8828H37.3662L36.5615 15.3711L34.0889 15.3672ZM39.2959 6.95312L37.9561 11.0781L40.7178 11.0742L39.3818 6.95312H39.2959Z" stroke="#011F4B" stroke-width="0.5"/>
<path d="M5.47266 3.42188L6.60938 1H8.69922L7.08594 3.42188H5.47266Z" stroke="#011F4B" stroke-width="0.5"/>
<path d="M72.2094 11.2944V9.56006H76.768V11.1616L76.7446 11.4976L76.7016 11.8804L76.6548 12.1343L76.5805 12.4077L76.4907 12.7085L76.3696 13.0015L76.1743 13.3921L76.0024 13.6694L75.8266 13.8921L75.6743 14.0796L75.4829 14.2827L75.2719 14.4741L75.061 14.6382L74.6977 14.8843L74.4243 15.0327L74.186 15.1421L73.9282 15.2437L73.5962 15.3491L73.2368 15.439L72.979 15.478L72.7016 15.5171L72.4477 15.5366L72.1899 15.5562H71.9321L71.643 15.5366L71.3383 15.5171L71.0454 15.478L70.8423 15.439L70.5571 15.3726L70.2915 15.2866L69.9633 15.1694L69.7055 15.0601L69.5024 14.9546L69.2954 14.8452L69.104 14.7163L68.9087 14.5874L68.7524 14.4507L68.5063 14.2319L68.2798 14.0132L68.1118 13.8179L67.9477 13.5991L67.7993 13.3843L67.6001 13.0562L67.4165 12.6851L67.2485 12.2554L67.143 11.9194L67.061 11.564L66.9985 11.2241L66.9594 10.9741L66.9282 10.7241L66.9008 10.1226V9.72803L66.9204 9.40771L66.9477 9.0874L66.9907 8.70068L67.0688 8.32568L67.1548 7.98584L67.229 7.73584L67.3227 7.48193L67.4633 7.14599L67.643 6.81396L67.8462 6.47412L68.061 6.17724L68.2837 5.91162L68.5063 5.68506L68.6938 5.50537L68.9087 5.3374L69.1665 5.15381L69.479 4.9624L69.7837 4.81006L70.0962 4.67334L70.5298 4.53662L70.893 4.44287L71.3266 4.37646L71.6001 4.35303L71.8579 4.33349H72.0962L72.4399 4.35303L72.7602 4.37646L72.9868 4.41943L73.2173 4.46631L73.5024 4.53662L73.7876 4.63428L74.0493 4.73193L74.3305 4.85693L74.6079 5.00146L74.8501 5.15381L75.1079 5.33349L75.3266 5.52099L75.5219 5.70068L75.7016 5.8999L75.9048 6.14599L76.0649 6.38037L76.2212 6.62646L76.3618 6.91943L76.4633 7.17334L76.5337 7.3999L76.5766 7.54443L76.6352 7.81006L76.6704 8.02099H74.3266L74.2719 7.84912L74.2016 7.67334L74.1196 7.50146L74.0063 7.31787L73.8383 7.11474L73.6899 6.9624L73.5102 6.81396L73.2407 6.64599L73.0063 6.54443L72.7524 6.4624L72.393 6.39599L72.0337 6.37646L71.7212 6.39599L71.4243 6.44287L71.0649 6.54443L70.8305 6.64599L70.5883 6.78662L70.393 6.92724L70.1938 7.09912L70.0337 7.28271L69.8266 7.55615L69.6587 7.85303L69.5298 8.13818L69.4243 8.44678L69.354 8.72803L69.3071 9.00146L69.2602 9.3374L69.2329 9.79834V9.97803L69.2602 10.5601L69.3071 10.8726L69.3852 11.2827L69.5024 11.6577L69.643 12.0171L69.8462 12.3726L70.0376 12.6147L70.229 12.8257L70.4555 13.021L70.6704 13.1616L70.8735 13.271L71.0766 13.3491L71.2446 13.4038L71.4594 13.4546L71.7173 13.4897L71.9633 13.5093H72.2094L72.4321 13.4897L72.7016 13.4546L72.9399 13.4038L73.1704 13.3257L73.4008 13.228L73.6235 13.103L73.8188 12.9585L73.9985 12.7866L74.1352 12.6187L74.2485 12.4429L74.3462 12.2476L74.4438 12.0015L74.5063 11.7046L74.5454 11.4507V11.2944H72.2094Z" stroke="#011F4B" stroke-width="0.5"/>
<path d="M49.3867 15.3906V4.48438H51.6875V13.4883H56.3711V15.3906H49.3867Z" stroke="#011F4B" stroke-width="0.5"/>
<path d="M89.3746 15.3934V4.48718H91.6753V13.4911H96.3589V15.3934H89.3746Z" stroke="#011F4B" stroke-width="0.5"/>
<path d="M57.8984 15.3906V4.48438H65.2461V6.38281H60.2031V8.97656H64.8672V10.8789H60.2031V13.4883H65.2656V15.3906H57.8984Z" stroke="#011F4B" stroke-width="0.5"/>
<path d="M23.75 4.48047H26.0547V11.4531L26.0781 11.6875L26.1211 11.9375L26.2188 12.2539L26.3477 12.5078L26.4961 12.7344L26.6641 12.9141L26.8711 13.0898L27.0977 13.2344L27.3398 13.3477L27.5664 13.4258L27.8047 13.4766L28.0703 13.5117H28.3906L28.7344 13.4766L29 13.4258L29.207 13.3477L29.4492 13.2344L29.6836 13.082L29.8828 12.9141L30.0312 12.7383L30.1836 12.5273L30.3008 12.3008L30.4062 12.0078L30.4609 11.7539L30.4883 11.4297V4.48047H32.793V11.6367V11.8242L32.7617 12.1055L32.7188 12.4102L32.6406 12.7383L32.5039 13.1133L32.3984 13.3477L32.2695 13.5859L32.1016 13.8438L31.8984 14.0977L31.6953 14.3086L31.4883 14.5078L31.2383 14.7031L31.0273 14.8438L30.8242 14.957L30.5703 15.0859L30.2578 15.2188L29.9414 15.3242L29.6172 15.4102L29.3242 15.4727L28.918 15.5234L28.5312 15.5469H28.1406H27.793L27.4219 15.5039L27.0586 15.4414L26.6406 15.3438L26.2617 15.2266L25.9297 15.0703L25.6016 14.8906L25.3594 14.7422L25.1094 14.5547L24.8711 14.3359L24.6836 14.1367L24.4727 13.8789L24.2891 13.6133L24.1055 13.2812L23.9844 13L23.8711 12.6367L23.8203 12.3984L23.7773 12.1211L23.7539 11.7852L23.75 4.48047Z" stroke="#011F4B" stroke-width="0.5"/>
</svg>
