<svg width="97" height="16" viewBox="0 0 97 16" fill="none" xmlns="http://www.w3.org/2000/svg">
<path fill-rule="evenodd" clip-rule="evenodd" d="M1.06934 14.9766L4.83496 4.0625H7.80762L11.5654 14.9766H9.10059L8.28809 12.4922H4.34668L3.54199 14.9805L1.06934 14.9766ZM6.27637 6.56249L4.93652 10.6875L7.69824 10.6836L6.3623 6.56249H6.27637Z" fill="#6497B1"/>
<path fill-rule="evenodd" clip-rule="evenodd" d="M77.5484 15.0319L81.314 4.11789H84.2867L88.0445 15.0319H85.5797L84.7672 12.5476H80.8258L80.0211 15.0359L77.5484 15.0319ZM82.7554 6.61789L81.4156 10.7429L84.1773 10.739L82.8414 6.61789H82.7554Z" fill="#6497B1"/>
<path d="M17.4404 10.8945V9.16016H21.999V10.7617L21.9756 11.0977L21.9326 11.4805L21.8857 11.7344L21.8115 12.0078L21.7217 12.3086L21.6006 12.6016L21.4053 12.9922L21.2334 13.2695L21.0576 13.4922L20.9053 13.6797L20.7139 13.8828L20.5029 14.0742L20.292 14.2383L19.9287 14.4844L19.6553 14.6328L19.417 14.7422L19.1592 14.8438L18.8271 14.9492L18.4678 15.0391L18.21 15.0781L17.9326 15.1172L17.6787 15.1367L17.4209 15.1562H17.1631L16.874 15.1367L16.5693 15.1172L16.2764 15.0781L16.0732 15.0391L15.7881 14.9727L15.5225 14.8867L15.1943 14.7695L14.9365 14.6602L14.7334 14.5547L14.5264 14.4453L14.335 14.3164L14.1396 14.1875L13.9834 14.0508L13.7373 13.832L13.5107 13.6133L13.3428 13.418L13.1787 13.1992L13.0303 12.9844L12.8311 12.6562L12.6475 12.2852L12.4795 11.8555L12.374 11.5195L12.292 11.1641L12.2295 10.8242L12.1904 10.5742L12.1592 10.3242L12.1318 9.72266V9.32813L12.1514 9.00781L12.1787 8.6875L12.2217 8.30078L12.2998 7.92578L12.3857 7.58594L12.46 7.33594L12.5537 7.08203L12.6943 6.74609L12.874 6.41406L13.0771 6.07422L13.292 5.77734L13.5146 5.51172L13.7373 5.28516L13.9248 5.10547L14.1396 4.9375L14.3975 4.75391L14.71 4.5625L15.0146 4.41016L15.3271 4.27344L15.7607 4.13672L16.124 4.04297L16.5576 3.97656L16.8311 3.95312L17.0889 3.93359H17.3271L17.6709 3.95312L17.9912 3.97656L18.2178 4.01953L18.4482 4.06641L18.7334 4.13672L19.0186 4.23438L19.2803 4.33203L19.5615 4.45703L19.8389 4.60156L20.0811 4.75391L20.3389 4.93359L20.5576 5.12109L20.7529 5.30078L20.9326 5.5L21.1357 5.74609L21.2959 5.98047L21.4521 6.22656L21.5928 6.51953L21.6943 6.77344L21.7646 7L21.8076 7.14453L21.8662 7.41016L21.9014 7.62109H19.5576L19.5029 7.44922L19.4326 7.27344L19.3506 7.10156L19.2373 6.91797L19.0693 6.71484L18.9209 6.5625L18.7412 6.41406L18.4717 6.24609L18.2373 6.14453L17.9834 6.0625L17.624 5.99609L17.2646 5.97656L16.9521 5.99609L16.6553 6.04297L16.2959 6.14453L16.0615 6.24609L15.8193 6.38672L15.624 6.52734L15.4248 6.69922L15.2646 6.88281L15.0576 7.15625L14.8896 7.45312L14.7607 7.73828L14.6553 8.04688L14.585 8.32813L14.5381 8.60156L14.4912 8.9375L14.4639 9.39844V9.57813L14.4912 10.1602L14.5381 10.4727L14.6162 10.8828L14.7334 11.2578L14.874 11.6172L15.0771 11.9727L15.2686 12.2148L15.46 12.4258L15.6865 12.6211L15.9014 12.7617L16.1045 12.8711L16.3076 12.9492L16.4756 13.0039L16.6904 13.0547L16.9482 13.0898L17.1943 13.1094H17.4404L17.6631 13.0898L17.9326 13.0547L18.1709 13.0039L18.4014 12.9258L18.6318 12.8281L18.8545 12.7031L19.0498 12.5586L19.2295 12.3867L19.3662 12.2188L19.4795 12.043L19.5771 11.8477L19.6748 11.6016L19.7373 11.3047L19.7764 11.0508V10.8945H17.4404Z" fill="#6497B1"/>
<path fill-rule="evenodd" clip-rule="evenodd" d="M34.0889 14.9766L37.8545 4.0625H40.8271L44.585 14.9766H42.1201L41.3076 12.4922H37.3662L36.5615 14.9805L34.0889 14.9766ZM39.2959 6.56249L37.9561 10.6875L40.7178 10.6836L39.3818 6.56249H39.2959Z" fill="#6497B1"/>
<path d="M5.47266 3.03125L6.60938 0.609375H8.69922L7.08594 3.03125H5.47266Z" fill="#6497B1"/>
<path d="M72.2094 10.9038V9.16943H76.768V10.771L76.7446 11.1069L76.7016 11.4897L76.6548 11.7437L76.5805 12.0171L76.4907 12.3179L76.3696 12.6108L76.1743 13.0015L76.0024 13.2788L75.8266 13.5015L75.6743 13.689L75.4829 13.8921L75.2719 14.0835L75.061 14.2476L74.6977 14.4937L74.4243 14.6421L74.186 14.7515L73.9282 14.853L73.5962 14.9585L73.2368 15.0483L72.979 15.0874L72.7016 15.1265L72.4477 15.146L72.1899 15.1655H71.9321L71.643 15.146L71.3383 15.1265L71.0454 15.0874L70.8423 15.0483L70.5571 14.9819L70.2915 14.896L69.9633 14.7788L69.7055 14.6694L69.5024 14.564L69.2954 14.4546L69.104 14.3257L68.9087 14.1968L68.7524 14.0601L68.5063 13.8413L68.2798 13.6226L68.1118 13.4272L67.9477 13.2085L67.7993 12.9937L67.6001 12.6655L67.4165 12.2944L67.2485 11.8647L67.143 11.5288L67.061 11.1733L66.9985 10.8335L66.9594 10.5835L66.9282 10.3335L66.9008 9.73193V9.3374L66.9204 9.01709L66.9477 8.69678L66.9907 8.31006L67.0688 7.93506L67.1548 7.59521L67.229 7.34521L67.3227 7.09131L67.4633 6.75537L67.643 6.42334L67.8462 6.08349L68.061 5.78662L68.2837 5.52099L68.5063 5.29443L68.6938 5.11474L68.9087 4.94678L69.1665 4.76318L69.479 4.57178L69.7837 4.41943L70.0962 4.28271L70.5298 4.14599L70.893 4.05224L71.3266 3.98584L71.6001 3.9624L71.8579 3.94287H72.0962L72.4399 3.9624L72.7602 3.98584L72.9868 4.02881L73.2173 4.07568L73.5024 4.14599L73.7876 4.24365L74.0493 4.34131L74.3305 4.46631L74.6079 4.61084L74.8501 4.76318L75.1079 4.94287L75.3266 5.13037L75.5219 5.31006L75.7016 5.50928L75.9048 5.75537L76.0649 5.98974L76.2212 6.23584L76.3618 6.52881L76.4633 6.78271L76.5337 7.00928L76.5766 7.15381L76.6352 7.41943L76.6704 7.63037H74.3266L74.2719 7.45849L74.2016 7.28271L74.1196 7.11084L74.0063 6.92724L73.8383 6.72412L73.6899 6.57178L73.5102 6.42334L73.2407 6.25537L73.0063 6.15381L72.7524 6.07178L72.393 6.00537L72.0337 5.98584L71.7212 6.00537L71.4243 6.05224L71.0649 6.15381L70.8305 6.25537L70.5883 6.39599L70.393 6.53662L70.1938 6.70849L70.0337 6.89209L69.8266 7.16553L69.6587 7.4624L69.5298 7.74756L69.4243 8.05615L69.354 8.3374L69.3071 8.61084L69.2602 8.94678L69.2329 9.40771V9.5874L69.2602 10.1694L69.3071 10.4819L69.3852 10.8921L69.5024 11.2671L69.643 11.6265L69.8462 11.9819L70.0376 12.2241L70.229 12.4351L70.4555 12.6304L70.6704 12.771L70.8735 12.8804L71.0766 12.9585L71.2446 13.0132L71.4594 13.064L71.7173 13.0991L71.9633 13.1187H72.2094L72.4321 13.0991L72.7016 13.064L72.9399 13.0132L73.1704 12.9351L73.4008 12.8374L73.6235 12.7124L73.8188 12.5679L73.9985 12.396L74.1352 12.228L74.2485 12.0522L74.3462 11.8569L74.4438 11.6108L74.5063 11.314L74.5454 11.0601V10.9038H72.2094Z" fill="#6497B1"/>
<path d="M49.3867 15V4.09375H51.6875V13.0977H56.3711V15H49.3867Z" fill="#6497B1"/>
<path d="M89.3746 15.0028V4.09655H91.6753V13.1005H96.3589V15.0028H89.3746Z" fill="#6497B1"/>
<path d="M57.8984 15V4.09375H65.2461V5.99219H60.2031V8.58594H64.8672V10.4883H60.2031V13.0977H65.2656V15H57.8984Z" fill="#6497B1"/>
<path d="M23.75 4.08984H26.0547V11.0625L26.0781 11.2969L26.1211 11.5469L26.2188 11.8633L26.3477 12.1172L26.4961 12.3438L26.6641 12.5234L26.8711 12.6992L27.0977 12.8438L27.3398 12.957L27.5664 13.0352L27.8047 13.0859L28.0703 13.1211H28.3906L28.7344 13.0859L29 13.0352L29.207 12.957L29.4492 12.8438L29.6836 12.6914L29.8828 12.5234L30.0312 12.3477L30.1836 12.1367L30.3008 11.9102L30.4062 11.6172L30.4609 11.3633L30.4883 11.0391V4.08984H32.793V11.2461V11.4336L32.7617 11.7148L32.7188 12.0195L32.6406 12.3477L32.5039 12.7227L32.3984 12.957L32.2695 13.1953L32.1016 13.4531L31.8984 13.707L31.6953 13.918L31.4883 14.1172L31.2383 14.3125L31.0273 14.4531L30.8242 14.5664L30.5703 14.6953L30.2578 14.8281L29.9414 14.9336L29.6172 15.0195L29.3242 15.082L28.918 15.1328L28.5312 15.1562H28.1406H27.793L27.4219 15.1133L27.0586 15.0508L26.6406 14.9531L26.2617 14.8359L25.9297 14.6797L25.6016 14.5L25.3594 14.3516L25.1094 14.1641L24.8711 13.9453L24.6836 13.7461L24.4727 13.4883L24.2891 13.2227L24.1055 12.8906L23.9844 12.6094L23.8711 12.2461L23.8203 12.0078L23.7773 11.7305L23.7539 11.3945L23.75 4.08984Z" fill="#6497B1"/>
<path fill-rule="evenodd" clip-rule="evenodd" d="M1.06934 14.9766L4.83496 4.0625H7.80762L11.5654 14.9766H9.10059L8.28809 12.4922H4.34668L3.54199 14.9805L1.06934 14.9766ZM6.27637 6.56249L4.93652 10.6875L7.69824 10.6836L6.3623 6.56249H6.27637Z" stroke="#B3CDE0" stroke-width="0.5"/>
<path fill-rule="evenodd" clip-rule="evenodd" d="M77.5484 15.0319L81.314 4.11789H84.2867L88.0445 15.0319H85.5797L84.7672 12.5476H80.8258L80.0211 15.0359L77.5484 15.0319ZM82.7554 6.61789L81.4156 10.7429L84.1773 10.739L82.8414 6.61789H82.7554Z" stroke="#B3CDE0" stroke-width="0.5"/>
<path d="M17.4404 10.8945V9.16016H21.999V10.7617L21.9756 11.0977L21.9326 11.4805L21.8857 11.7344L21.8115 12.0078L21.7217 12.3086L21.6006 12.6016L21.4053 12.9922L21.2334 13.2695L21.0576 13.4922L20.9053 13.6797L20.7139 13.8828L20.5029 14.0742L20.292 14.2383L19.9287 14.4844L19.6553 14.6328L19.417 14.7422L19.1592 14.8438L18.8271 14.9492L18.4678 15.0391L18.21 15.0781L17.9326 15.1172L17.6787 15.1367L17.4209 15.1562H17.1631L16.874 15.1367L16.5693 15.1172L16.2764 15.0781L16.0732 15.0391L15.7881 14.9727L15.5225 14.8867L15.1943 14.7695L14.9365 14.6602L14.7334 14.5547L14.5264 14.4453L14.335 14.3164L14.1396 14.1875L13.9834 14.0508L13.7373 13.832L13.5107 13.6133L13.3428 13.418L13.1787 13.1992L13.0303 12.9844L12.8311 12.6562L12.6475 12.2852L12.4795 11.8555L12.374 11.5195L12.292 11.1641L12.2295 10.8242L12.1904 10.5742L12.1592 10.3242L12.1318 9.72266V9.32813L12.1514 9.00781L12.1787 8.6875L12.2217 8.30078L12.2998 7.92578L12.3857 7.58594L12.46 7.33594L12.5537 7.08203L12.6943 6.74609L12.874 6.41406L13.0771 6.07422L13.292 5.77734L13.5146 5.51172L13.7373 5.28516L13.9248 5.10547L14.1396 4.9375L14.3975 4.75391L14.71 4.5625L15.0146 4.41016L15.3271 4.27344L15.7607 4.13672L16.124 4.04297L16.5576 3.97656L16.8311 3.95312L17.0889 3.93359H17.3271L17.6709 3.95312L17.9912 3.97656L18.2178 4.01953L18.4482 4.06641L18.7334 4.13672L19.0186 4.23438L19.2803 4.33203L19.5615 4.45703L19.8389 4.60156L20.0811 4.75391L20.3389 4.93359L20.5576 5.12109L20.7529 5.30078L20.9326 5.5L21.1357 5.74609L21.2959 5.98047L21.4521 6.22656L21.5928 6.51953L21.6943 6.77344L21.7646 7L21.8076 7.14453L21.8662 7.41016L21.9014 7.62109H19.5576L19.5029 7.44922L19.4326 7.27344L19.3506 7.10156L19.2373 6.91797L19.0693 6.71484L18.9209 6.5625L18.7412 6.41406L18.4717 6.24609L18.2373 6.14453L17.9834 6.0625L17.624 5.99609L17.2646 5.97656L16.9521 5.99609L16.6553 6.04297L16.2959 6.14453L16.0615 6.24609L15.8193 6.38672L15.624 6.52734L15.4248 6.69922L15.2646 6.88281L15.0576 7.15625L14.8896 7.45312L14.7607 7.73828L14.6553 8.04688L14.585 8.32813L14.5381 8.60156L14.4912 8.9375L14.4639 9.39844V9.57813L14.4912 10.1602L14.5381 10.4727L14.6162 10.8828L14.7334 11.2578L14.874 11.6172L15.0771 11.9727L15.2686 12.2148L15.46 12.4258L15.6865 12.6211L15.9014 12.7617L16.1045 12.8711L16.3076 12.9492L16.4756 13.0039L16.6904 13.0547L16.9482 13.0898L17.1943 13.1094H17.4404L17.6631 13.0898L17.9326 13.0547L18.1709 13.0039L18.4014 12.9258L18.6318 12.8281L18.8545 12.7031L19.0498 12.5586L19.2295 12.3867L19.3662 12.2188L19.4795 12.043L19.5771 11.8477L19.6748 11.6016L19.7373 11.3047L19.7764 11.0508V10.8945H17.4404Z" stroke="#B3CDE0" stroke-width="0.5"/>
<path fill-rule="evenodd" clip-rule="evenodd" d="M34.0889 14.9766L37.8545 4.0625H40.8271L44.585 14.9766H42.1201L41.3076 12.4922H37.3662L36.5615 14.9805L34.0889 14.9766ZM39.2959 6.56249L37.9561 10.6875L40.7178 10.6836L39.3818 6.56249H39.2959Z" stroke="#B3CDE0" stroke-width="0.5"/>
<path d="M5.47266 3.03125L6.60938 0.609375H8.69922L7.08594 3.03125H5.47266Z" stroke="#B3CDE0" stroke-width="0.5"/>
<path d="M72.2094 10.9038V9.16943H76.768V10.771L76.7446 11.1069L76.7016 11.4897L76.6548 11.7437L76.5805 12.0171L76.4907 12.3179L76.3696 12.6108L76.1743 13.0015L76.0024 13.2788L75.8266 13.5015L75.6743 13.689L75.4829 13.8921L75.2719 14.0835L75.061 14.2476L74.6977 14.4937L74.4243 14.6421L74.186 14.7515L73.9282 14.853L73.5962 14.9585L73.2368 15.0483L72.979 15.0874L72.7016 15.1265L72.4477 15.146L72.1899 15.1655H71.9321L71.643 15.146L71.3383 15.1265L71.0454 15.0874L70.8423 15.0483L70.5571 14.9819L70.2915 14.896L69.9633 14.7788L69.7055 14.6694L69.5024 14.564L69.2954 14.4546L69.104 14.3257L68.9087 14.1968L68.7524 14.0601L68.5063 13.8413L68.2798 13.6226L68.1118 13.4272L67.9477 13.2085L67.7993 12.9937L67.6001 12.6655L67.4165 12.2944L67.2485 11.8647L67.143 11.5288L67.061 11.1733L66.9985 10.8335L66.9594 10.5835L66.9282 10.3335L66.9008 9.73193V9.3374L66.9204 9.01709L66.9477 8.69678L66.9907 8.31006L67.0688 7.93506L67.1548 7.59521L67.229 7.34521L67.3227 7.09131L67.4633 6.75537L67.643 6.42334L67.8462 6.08349L68.061 5.78662L68.2837 5.52099L68.5063 5.29443L68.6938 5.11474L68.9087 4.94678L69.1665 4.76318L69.479 4.57178L69.7837 4.41943L70.0962 4.28271L70.5298 4.14599L70.893 4.05224L71.3266 3.98584L71.6001 3.9624L71.8579 3.94287H72.0962L72.4399 3.9624L72.7602 3.98584L72.9868 4.02881L73.2173 4.07568L73.5024 4.14599L73.7876 4.24365L74.0493 4.34131L74.3305 4.46631L74.6079 4.61084L74.8501 4.76318L75.1079 4.94287L75.3266 5.13037L75.5219 5.31006L75.7016 5.50928L75.9048 5.75537L76.0649 5.98974L76.2212 6.23584L76.3618 6.52881L76.4633 6.78271L76.5337 7.00928L76.5766 7.15381L76.6352 7.41943L76.6704 7.63037H74.3266L74.2719 7.45849L74.2016 7.28271L74.1196 7.11084L74.0063 6.92724L73.8383 6.72412L73.6899 6.57178L73.5102 6.42334L73.2407 6.25537L73.0063 6.15381L72.7524 6.07178L72.393 6.00537L72.0337 5.98584L71.7212 6.00537L71.4243 6.05224L71.0649 6.15381L70.8305 6.25537L70.5883 6.39599L70.393 6.53662L70.1938 6.70849L70.0337 6.89209L69.8266 7.16553L69.6587 7.4624L69.5298 7.74756L69.4243 8.05615L69.354 8.3374L69.3071 8.61084L69.2602 8.94678L69.2329 9.40771V9.5874L69.2602 10.1694L69.3071 10.4819L69.3852 10.8921L69.5024 11.2671L69.643 11.6265L69.8462 11.9819L70.0376 12.2241L70.229 12.4351L70.4555 12.6304L70.6704 12.771L70.8735 12.8804L71.0766 12.9585L71.2446 13.0132L71.4594 13.064L71.7173 13.0991L71.9633 13.1187H72.2094L72.4321 13.0991L72.7016 13.064L72.9399 13.0132L73.1704 12.9351L73.4008 12.8374L73.6235 12.7124L73.8188 12.5679L73.9985 12.396L74.1352 12.228L74.2485 12.0522L74.3462 11.8569L74.4438 11.6108L74.5063 11.314L74.5454 11.0601V10.9038H72.2094Z" stroke="#B3CDE0" stroke-width="0.5"/>
<path d="M49.3867 15V4.09375H51.6875V13.0977H56.3711V15H49.3867Z" stroke="#B3CDE0" stroke-width="0.5"/>
<path d="M89.3746 15.0028V4.09655H91.6753V13.1005H96.3589V15.0028H89.3746Z" stroke="#B3CDE0" stroke-width="0.5"/>
<path d="M57.8984 15V4.09375H65.2461V5.99219H60.2031V8.58594H64.8672V10.4883H60.2031V13.0977H65.2656V15H57.8984Z" stroke="#B3CDE0" stroke-width="0.5"/>
<path d="M23.75 4.08984H26.0547V11.0625L26.0781 11.2969L26.1211 11.5469L26.2188 11.8633L26.3477 12.1172L26.4961 12.3438L26.6641 12.5234L26.8711 12.6992L27.0977 12.8438L27.3398 12.957L27.5664 13.0352L27.8047 13.0859L28.0703 13.1211H28.3906L28.7344 13.0859L29 13.0352L29.207 12.957L29.4492 12.8438L29.6836 12.6914L29.8828 12.5234L30.0312 12.3477L30.1836 12.1367L30.3008 11.9102L30.4062 11.6172L30.4609 11.3633L30.4883 11.0391V4.08984H32.793V11.2461V11.4336L32.7617 11.7148L32.7188 12.0195L32.6406 12.3477L32.5039 12.7227L32.3984 12.957L32.2695 13.1953L32.1016 13.4531L31.8984 13.707L31.6953 13.918L31.4883 14.1172L31.2383 14.3125L31.0273 14.4531L30.8242 14.5664L30.5703 14.6953L30.2578 14.8281L29.9414 14.9336L29.6172 15.0195L29.3242 15.082L28.918 15.1328L28.5312 15.1562H28.1406H27.793L27.4219 15.1133L27.0586 15.0508L26.6406 14.9531L26.2617 14.8359L25.9297 14.6797L25.6016 14.5L25.3594 14.3516L25.1094 14.1641L24.8711 13.9453L24.6836 13.7461L24.4727 13.4883L24.2891 13.2227L24.1055 12.8906L23.9844 12.6094L23.8711 12.2461L23.8203 12.0078L23.7773 11.7305L23.7539 11.3945L23.75 4.08984Z" stroke="#B3CDE0" stroke-width="0.5"/>
</svg>
