<svg width="89" height="12" viewBox="0 0 89 12" fill="none" xmlns="http://www.w3.org/2000/svg">
<path fill-rule="evenodd" clip-rule="evenodd" d="M0.449219 11.3828H2.75781L2.75391 7.85938H4.85938L5.13281 7.83984L5.5 7.80469L6.00391 7.70703L6.48438 7.55078L6.84375 7.39453L7.12109 7.22266L7.50391 6.94531L7.67578 6.78906L8 6.39844L8.19922 6.08203L8.34766 5.78906L8.46484 5.48828L8.52734 5.25781L8.60156 4.95703L8.63672 4.67188L8.65625 4.39453V4.07422L8.63672 3.69922L8.59375 3.39453L8.52344 3.07031L8.42578 2.77344L8.31641 2.49609L8.20312 2.26563L8.05078 2.02344L7.84375 1.74609L7.64844 1.53516L7.37891 1.29297L7.14062 1.125L6.92188 0.996094L6.67969 0.867187L6.48438 0.78125L6.28516 0.703125L5.98047 0.613281L5.75 0.566406L5.54297 0.535156L5.30078 0.507812L4.94922 0.484375H0.449219V11.3828ZM2.75391 2.36746V6.0007H4.57031L4.8125 5.96875L5.05859 5.91797L5.28906 5.83594L5.5 5.72656L5.67578 5.60156L5.81641 5.47656L6 5.25L6.15234 4.94141L6.25391 4.60938L6.27344 4.40234L6.29297 4.17188L6.27344 3.91797L6.21101 3.58047L6.11859 3.33209L5.99152 3.10682L5.82978 2.89887L5.66227 2.74869L5.50054 2.64472L5.3388 2.55808L5.17129 2.49454L4.9749 2.43678L4.74385 2.39634L4.47237 2.36746H2.75391Z" fill="#D9D9D9"/>
<path fill-rule="evenodd" clip-rule="evenodd" d="M10.1602 11.3906V0.480469H14.5508H14.6797L15.1484 0.515625L15.4883 0.5625L15.7305 0.621094L15.9648 0.683594L16.1914 0.753906L16.4297 0.84375L16.6484 0.960937L16.8906 1.09766L17.1094 1.25391L17.2852 1.39062L17.5 1.60156L17.6719 1.80859L17.8242 2.01562L17.957 2.25391L18.0898 2.51172L18.168 2.72656L18.2422 2.97266L18.3125 3.30859L18.3516 3.57812L18.375 3.84766V4.10156V4.26953L18.3516 4.59766L18.2656 5.03516L18.1562 5.39844L18.0078 5.72266L17.8555 5.99219L17.6602 6.26563L17.4531 6.49219L17.2383 6.67969L17 6.85156L16.8203 6.96875L16.6406 7.06641L16.4453 7.14844L16.8906 7.96875L18.7578 11.3867H16.2188L14.1523 7.52344H12.4609V11.3828L10.1602 11.3906ZM12.4648 2.36328V5.66797H14.2617L14.5 5.64063L14.8125 5.58984L15.0625 5.51563L15.3281 5.39453L15.4766 5.28516L15.6211 5.16406L15.7422 4.99219L15.8789 4.76172L15.9453 4.52344L15.9883 4.19531V3.85938L15.9648 3.63672L15.8984 3.39062L15.8281 3.21875L15.7422 3.07812L15.6367 2.92188L15.5 2.79688L15.3398 2.67188L15.125 2.55859L14.8828 2.47656L14.6602 2.41797L14.4023 2.38672L14.0859 2.36328H12.4648Z" fill="#D9D9D9"/>
<path fill-rule="evenodd" clip-rule="evenodd" d="M24.5078 11.5273L24.1289 11.4883L23.7891 11.4297L23.4531 11.3555L23.2266 11.2812L23.0352 11.2148L22.8203 11.1289L22.5391 11.0039L22.2891 10.8672L21.9883 10.6875L21.7383 10.5L21.5039 10.293L21.2695 10.0664L21.0391 9.80859L20.8086 9.49219L20.5508 9.08594L20.3789 8.77344L20.2344 8.4375L20.1055 8.05469L20.0078 7.72266L19.9336 7.35547L19.8828 7.02734L19.8398 6.67188L19.8164 6.39844V6.05078V5.73438V5.42188L19.8398 5.15625L19.875 4.92188L19.9258 4.55078L19.9922 4.22266L20.1016 3.82812L20.2383 3.43359L20.4297 3L20.6211 2.66016L20.8047 2.37891L21.043 2.05859L21.3477 1.71875L21.7109 1.39844L22.1172 1.10156L22.4922 0.890625L22.8164 0.738281L23.1445 0.613281L23.4727 0.511719L23.8477 0.429687L24.2539 0.363281L24.6133 0.335938H25.0508H25.2695L25.6289 0.363281L25.875 0.402344L26.1797 0.472656L26.4688 0.546875L26.7773 0.640625L27.0586 0.753906L27.3555 0.898437L27.6562 1.07031L27.9219 1.24219L28.1562 1.42187L28.3906 1.63281L28.5977 1.82812L28.8125 2.07812L29.0273 2.36328L29.2109 2.64844L29.3828 2.94531L29.5156 3.23438L29.6719 3.62891L29.7812 3.97656L29.8789 4.38281L29.9453 4.71875L29.9844 5.07813L30.0156 5.42578L30.0352 5.74609V6.08594L30.0156 6.42188L29.9922 6.75391L29.9453 7.11719L29.8984 7.41016L29.8125 7.80469L29.6641 8.26172L29.5273 8.61719L29.4102 8.87109L29.1953 9.26172L28.9961 9.54688L28.8125 9.78906L28.5195 10.1172L28.2305 10.3867L27.9727 10.5898L27.5156 10.8906L27.0742 11.1055L26.6914 11.2617L26.4219 11.3398L26.0469 11.4336L25.7422 11.4883L25.375 11.5273L25.0273 11.5469H24.7539L24.5078 11.5273ZM24.7812 9.50391H24.9609H25.0039L25.3203 9.47656L25.4805 9.44922L25.7852 9.375L26.0703 9.25781L26.3477 9.10938L26.5508 8.96484L26.7695 8.76172L26.9609 8.54297L27.1328 8.29297L27.2852 8.01953L27.4453 7.62891L27.5547 7.25781L27.6289 6.89844L27.6602 6.53125L27.6836 6.10547V5.80469V5.55859L27.6602 5.26953L27.6289 5.02344L27.5859 4.76953L27.5117 4.45313L27.4297 4.20703L27.3516 4.01562L27.2617 3.80859L27.1562 3.62109L27.0312 3.42578L26.9023 3.25781L26.7695 3.11328L26.6094 2.95312L26.4414 2.83203L26.2578 2.70312L26.0781 2.61719L25.9531 2.5625L25.7344 2.48438L25.5352 2.43359L25.293 2.39453L25.0938 2.37109H24.9219H24.7227L24.5039 2.39453L24.3008 2.43359L24.1133 2.48438L23.8867 2.5625L23.5938 2.70312L23.3125 2.89062L23.0586 3.11328L22.8281 3.39062L22.6289 3.69531L22.4883 3.99219L22.3672 4.32422L22.2812 4.65625L22.2266 4.93359L22.1875 5.21484L22.168 5.51172L22.1484 5.83594V6.14063L22.168 6.44922L22.2031 6.80078L22.2578 7.14063L22.3594 7.52734L22.4688 7.83203L22.5664 8.05469L22.7109 8.3125L22.8555 8.52344L23.0156 8.71484L23.3086 8.97656L23.5781 9.16406L23.8594 9.30078L24.1914 9.41406L24.5195 9.47656L24.7812 9.50391Z" fill="#D9D9D9"/>
<path d="M36.8555 7.28516V5.55078H41.4141V7.15234L41.3906 7.48828L41.3477 7.87109L41.3008 8.125L41.2266 8.39844L41.1367 8.69922L41.0156 8.99219L40.8203 9.38281L40.6484 9.66016L40.4727 9.88281L40.3203 10.0703L40.1289 10.2734L39.918 10.4648L39.707 10.6289L39.3438 10.875L39.0703 11.0234L38.832 11.1328L38.5742 11.2344L38.2422 11.3398L37.8828 11.4297L37.625 11.4688L37.3477 11.5078L37.0938 11.5273L36.8359 11.5469H36.5781L36.2891 11.5273L35.9844 11.5078L35.6914 11.4688L35.4883 11.4297L35.2031 11.3633L34.9375 11.2773L34.6094 11.1602L34.3516 11.0508L34.1484 10.9453L33.9414 10.8359L33.75 10.707L33.5547 10.5781L33.3984 10.4414L33.1523 10.2227L32.9258 10.0039L32.7578 9.80859L32.5938 9.58984L32.4453 9.375L32.2461 9.04688L32.0625 8.67578L31.8945 8.24609L31.7891 7.91016L31.707 7.55469L31.6445 7.21484L31.6055 6.96484L31.5742 6.71484L31.5469 6.11328V5.71875L31.5664 5.39844L31.5938 5.07813L31.6367 4.69141L31.7148 4.31641L31.8008 3.97656L31.875 3.72656L31.9688 3.47266L32.1094 3.13672L32.2891 2.80469L32.4922 2.46484L32.707 2.16797L32.9297 1.90234L33.1523 1.67578L33.3398 1.49609L33.5547 1.32812L33.8125 1.14453L34.125 0.953125L34.4297 0.800781L34.7422 0.664062L35.1758 0.527344L35.5391 0.433594L35.9727 0.367188L36.2461 0.34375L36.5039 0.324219H36.7422L37.0859 0.34375L37.4062 0.367188L37.6328 0.410156L37.8633 0.457031L38.1484 0.527344L38.4336 0.625L38.6953 0.722656L38.9766 0.847656L39.2539 0.992187L39.4961 1.14453L39.7539 1.32422L39.9727 1.51172L40.168 1.69141L40.3477 1.89062L40.5508 2.13672L40.7109 2.37109L40.8672 2.61719L41.0078 2.91016L41.1094 3.16406L41.1797 3.39062L41.2227 3.53516L41.2812 3.80078L41.3164 4.01172H38.9727L38.918 3.83984L38.8477 3.66406L38.7656 3.49219L38.6523 3.30859L38.4844 3.10547L38.3359 2.95312L38.1562 2.80469L37.8867 2.63672L37.6523 2.53516L37.3984 2.45312L37.0391 2.38672L36.6797 2.36719L36.3672 2.38672L36.0703 2.43359L35.7109 2.53516L35.4766 2.63672L35.2344 2.77734L35.0391 2.91797L34.8398 3.08984L34.6797 3.27344L34.4727 3.54688L34.3047 3.84375L34.1758 4.12891L34.0703 4.4375L34 4.71875L33.9531 4.99219L33.9062 5.32813L33.8789 5.78906V5.96875L33.9062 6.55078L33.9531 6.86328L34.0312 7.27344L34.1484 7.64844L34.2891 8.00781L34.4922 8.36328L34.6836 8.60547L34.875 8.81641L35.1016 9.01172L35.3164 9.15234L35.5195 9.26172L35.7227 9.33984L35.8906 9.39453L36.1055 9.44531L36.3633 9.48047L36.6094 9.5H36.8555L37.0781 9.48047L37.3477 9.44531L37.5859 9.39453L37.8164 9.31641L38.0469 9.21875L38.2695 9.09375L38.4648 8.94922L38.6445 8.77734L38.7812 8.60938L38.8945 8.43359L38.9922 8.23828L39.0898 7.99219L39.1523 7.69531L39.1914 7.44141V7.28516H36.8555Z" fill="#D9D9D9"/>
<path fill-rule="evenodd" clip-rule="evenodd" d="M43.1368 11.3713V0.461167H47.5275H47.6564L48.1251 0.496324L48.465 0.543199L48.7071 0.601792L48.9415 0.664292L49.1681 0.734605L49.4064 0.824448L49.6251 0.941636L49.8673 1.07835L50.086 1.2346L50.2618 1.37132L50.4767 1.58226L50.6485 1.78929L50.8009 1.99632L50.9337 2.2346L51.0665 2.49242L51.1446 2.70726L51.2189 2.95335L51.2892 3.28929L51.3282 3.55882L51.3517 3.82835V4.08226V4.25023L51.3282 4.57836L51.2423 5.01586L51.1329 5.37914L50.9845 5.70336L50.8321 5.97289L50.6368 6.24632L50.4298 6.47289L50.215 6.66039L49.9767 6.83226L49.797 6.94945L49.6173 7.04711L49.422 7.12914L49.8673 7.94945L51.7345 11.3674H49.1954L47.129 7.50414H45.4376V11.3635L43.1368 11.3713ZM45.4415 2.34398V5.64867H47.2384L47.4767 5.62132L47.7892 5.57054L48.0392 5.49632L48.3048 5.37523L48.4532 5.26586L48.5978 5.14476L48.7189 4.97289L48.8556 4.74242L48.922 4.50414L48.965 4.17601V3.84007L48.9415 3.61742L48.8751 3.37132L48.8048 3.19945L48.7189 3.05882L48.6134 2.90257L48.4767 2.77757L48.3165 2.65257L48.1017 2.53929L47.8595 2.45726L47.6368 2.39867L47.379 2.36742L47.0626 2.34398H45.4415Z" fill="#D9D9D9"/>
<path fill-rule="evenodd" clip-rule="evenodd" d="M52.4023 11.3906L56.168 0.476562H59.1406L62.8984 11.3906H60.4336L59.6211 8.90625H55.6797L54.875 11.3945L52.4023 11.3906ZM57.6094 2.97656L56.2695 7.10156L59.0312 7.09766L57.6953 2.97656H57.6094Z" fill="#D9D9D9"/>
<path fill-rule="evenodd" clip-rule="evenodd" d="M77.3575 11.3947L81.1231 0.480628H84.0957L87.8536 11.3947H85.3887L84.5762 8.91032H80.6348L79.8301 11.3986L77.3575 11.3947ZM82.5645 2.98063L81.2246 7.10563L83.9864 7.10172L82.6504 2.98063H82.5645Z" fill="#D9D9D9"/>
<path d="M64.2148 11.3867V0.484375H67.0547L70.0625 7.80859H70.1914L73.1914 0.484375H76.0352V11.3867H73.7969V4.29297H73.7031L70.8867 11.3359H69.3672L66.5391 4.26562H66.4492V11.3867H64.2148Z" fill="#D9D9D9"/>
<path fill-rule="evenodd" clip-rule="evenodd" d="M0.449219 11.3828H2.75781L2.75391 7.85938H4.85938L5.13281 7.83984L5.5 7.80469L6.00391 7.70703L6.48438 7.55078L6.84375 7.39453L7.12109 7.22266L7.50391 6.94531L7.67578 6.78906L8 6.39844L8.19922 6.08203L8.34766 5.78906L8.46484 5.48828L8.52734 5.25781L8.60156 4.95703L8.63672 4.67188L8.65625 4.39453V4.07422L8.63672 3.69922L8.59375 3.39453L8.52344 3.07031L8.42578 2.77344L8.31641 2.49609L8.20312 2.26563L8.05078 2.02344L7.84375 1.74609L7.64844 1.53516L7.37891 1.29297L7.14062 1.125L6.92188 0.996094L6.67969 0.867187L6.48438 0.78125L6.28516 0.703125L5.98047 0.613281L5.75 0.566406L5.54297 0.535156L5.30078 0.507812L4.94922 0.484375H0.449219V11.3828ZM2.75391 2.36746V6.0007H4.57031L4.8125 5.96875L5.05859 5.91797L5.28906 5.83594L5.5 5.72656L5.67578 5.60156L5.81641 5.47656L6 5.25L6.15234 4.94141L6.25391 4.60938L6.27344 4.40234L6.29297 4.17188L6.27344 3.91797L6.21101 3.58047L6.11859 3.33209L5.99152 3.10682L5.82978 2.89887L5.66227 2.74869L5.50054 2.64472L5.3388 2.55808L5.17129 2.49454L4.9749 2.43678L4.74385 2.39634L4.47237 2.36746H2.75391Z" stroke="#B3CDE0" stroke-width="0.5"/>
<path fill-rule="evenodd" clip-rule="evenodd" d="M10.1602 11.3906V0.480469H14.5508H14.6797L15.1484 0.515625L15.4883 0.5625L15.7305 0.621094L15.9648 0.683594L16.1914 0.753906L16.4297 0.84375L16.6484 0.960937L16.8906 1.09766L17.1094 1.25391L17.2852 1.39062L17.5 1.60156L17.6719 1.80859L17.8242 2.01562L17.957 2.25391L18.0898 2.51172L18.168 2.72656L18.2422 2.97266L18.3125 3.30859L18.3516 3.57812L18.375 3.84766V4.10156V4.26953L18.3516 4.59766L18.2656 5.03516L18.1562 5.39844L18.0078 5.72266L17.8555 5.99219L17.6602 6.26563L17.4531 6.49219L17.2383 6.67969L17 6.85156L16.8203 6.96875L16.6406 7.06641L16.4453 7.14844L16.8906 7.96875L18.7578 11.3867H16.2188L14.1523 7.52344H12.4609V11.3828L10.1602 11.3906ZM12.4648 2.36328V5.66797H14.2617L14.5 5.64063L14.8125 5.58984L15.0625 5.51563L15.3281 5.39453L15.4766 5.28516L15.6211 5.16406L15.7422 4.99219L15.8789 4.76172L15.9453 4.52344L15.9883 4.19531V3.85938L15.9648 3.63672L15.8984 3.39062L15.8281 3.21875L15.7422 3.07812L15.6367 2.92188L15.5 2.79688L15.3398 2.67188L15.125 2.55859L14.8828 2.47656L14.6602 2.41797L14.4023 2.38672L14.0859 2.36328H12.4648Z" stroke="#B3CDE0" stroke-width="0.5"/>
<path fill-rule="evenodd" clip-rule="evenodd" d="M24.5078 11.5273L24.1289 11.4883L23.7891 11.4297L23.4531 11.3555L23.2266 11.2812L23.0352 11.2148L22.8203 11.1289L22.5391 11.0039L22.2891 10.8672L21.9883 10.6875L21.7383 10.5L21.5039 10.293L21.2695 10.0664L21.0391 9.80859L20.8086 9.49219L20.5508 9.08594L20.3789 8.77344L20.2344 8.4375L20.1055 8.05469L20.0078 7.72266L19.9336 7.35547L19.8828 7.02734L19.8398 6.67188L19.8164 6.39844V6.05078V5.73438V5.42188L19.8398 5.15625L19.875 4.92188L19.9258 4.55078L19.9922 4.22266L20.1016 3.82812L20.2383 3.43359L20.4297 3L20.6211 2.66016L20.8047 2.37891L21.043 2.05859L21.3477 1.71875L21.7109 1.39844L22.1172 1.10156L22.4922 0.890625L22.8164 0.738281L23.1445 0.613281L23.4727 0.511719L23.8477 0.429687L24.2539 0.363281L24.6133 0.335938H25.0508H25.2695L25.6289 0.363281L25.875 0.402344L26.1797 0.472656L26.4688 0.546875L26.7773 0.640625L27.0586 0.753906L27.3555 0.898437L27.6562 1.07031L27.9219 1.24219L28.1562 1.42187L28.3906 1.63281L28.5977 1.82812L28.8125 2.07812L29.0273 2.36328L29.2109 2.64844L29.3828 2.94531L29.5156 3.23438L29.6719 3.62891L29.7812 3.97656L29.8789 4.38281L29.9453 4.71875L29.9844 5.07813L30.0156 5.42578L30.0352 5.74609V6.08594L30.0156 6.42188L29.9922 6.75391L29.9453 7.11719L29.8984 7.41016L29.8125 7.80469L29.6641 8.26172L29.5273 8.61719L29.4102 8.87109L29.1953 9.26172L28.9961 9.54688L28.8125 9.78906L28.5195 10.1172L28.2305 10.3867L27.9727 10.5898L27.5156 10.8906L27.0742 11.1055L26.6914 11.2617L26.4219 11.3398L26.0469 11.4336L25.7422 11.4883L25.375 11.5273L25.0273 11.5469H24.7539L24.5078 11.5273ZM24.7812 9.50391H24.9609H25.0039L25.3203 9.47656L25.4805 9.44922L25.7852 9.375L26.0703 9.25781L26.3477 9.10938L26.5508 8.96484L26.7695 8.76172L26.9609 8.54297L27.1328 8.29297L27.2852 8.01953L27.4453 7.62891L27.5547 7.25781L27.6289 6.89844L27.6602 6.53125L27.6836 6.10547V5.80469V5.55859L27.6602 5.26953L27.6289 5.02344L27.5859 4.76953L27.5117 4.45313L27.4297 4.20703L27.3516 4.01562L27.2617 3.80859L27.1562 3.62109L27.0312 3.42578L26.9023 3.25781L26.7695 3.11328L26.6094 2.95312L26.4414 2.83203L26.2578 2.70312L26.0781 2.61719L25.9531 2.5625L25.7344 2.48438L25.5352 2.43359L25.293 2.39453L25.0938 2.37109H24.9219H24.7227L24.5039 2.39453L24.3008 2.43359L24.1133 2.48438L23.8867 2.5625L23.5938 2.70312L23.3125 2.89062L23.0586 3.11328L22.8281 3.39062L22.6289 3.69531L22.4883 3.99219L22.3672 4.32422L22.2812 4.65625L22.2266 4.93359L22.1875 5.21484L22.168 5.51172L22.1484 5.83594V6.14063L22.168 6.44922L22.2031 6.80078L22.2578 7.14063L22.3594 7.52734L22.4688 7.83203L22.5664 8.05469L22.7109 8.3125L22.8555 8.52344L23.0156 8.71484L23.3086 8.97656L23.5781 9.16406L23.8594 9.30078L24.1914 9.41406L24.5195 9.47656L24.7812 9.50391Z" stroke="#B3CDE0" stroke-width="0.5"/>
<path d="M36.8555 7.28516V5.55078H41.4141V7.15234L41.3906 7.48828L41.3477 7.87109L41.3008 8.125L41.2266 8.39844L41.1367 8.69922L41.0156 8.99219L40.8203 9.38281L40.6484 9.66016L40.4727 9.88281L40.3203 10.0703L40.1289 10.2734L39.918 10.4648L39.707 10.6289L39.3438 10.875L39.0703 11.0234L38.832 11.1328L38.5742 11.2344L38.2422 11.3398L37.8828 11.4297L37.625 11.4688L37.3477 11.5078L37.0938 11.5273L36.8359 11.5469H36.5781L36.2891 11.5273L35.9844 11.5078L35.6914 11.4688L35.4883 11.4297L35.2031 11.3633L34.9375 11.2773L34.6094 11.1602L34.3516 11.0508L34.1484 10.9453L33.9414 10.8359L33.75 10.707L33.5547 10.5781L33.3984 10.4414L33.1523 10.2227L32.9258 10.0039L32.7578 9.80859L32.5938 9.58984L32.4453 9.375L32.2461 9.04688L32.0625 8.67578L31.8945 8.24609L31.7891 7.91016L31.707 7.55469L31.6445 7.21484L31.6055 6.96484L31.5742 6.71484L31.5469 6.11328V5.71875L31.5664 5.39844L31.5938 5.07813L31.6367 4.69141L31.7148 4.31641L31.8008 3.97656L31.875 3.72656L31.9688 3.47266L32.1094 3.13672L32.2891 2.80469L32.4922 2.46484L32.707 2.16797L32.9297 1.90234L33.1523 1.67578L33.3398 1.49609L33.5547 1.32812L33.8125 1.14453L34.125 0.953125L34.4297 0.800781L34.7422 0.664062L35.1758 0.527344L35.5391 0.433594L35.9727 0.367188L36.2461 0.34375L36.5039 0.324219H36.7422L37.0859 0.34375L37.4062 0.367188L37.6328 0.410156L37.8633 0.457031L38.1484 0.527344L38.4336 0.625L38.6953 0.722656L38.9766 0.847656L39.2539 0.992187L39.4961 1.14453L39.7539 1.32422L39.9727 1.51172L40.168 1.69141L40.3477 1.89062L40.5508 2.13672L40.7109 2.37109L40.8672 2.61719L41.0078 2.91016L41.1094 3.16406L41.1797 3.39062L41.2227 3.53516L41.2812 3.80078L41.3164 4.01172H38.9727L38.918 3.83984L38.8477 3.66406L38.7656 3.49219L38.6523 3.30859L38.4844 3.10547L38.3359 2.95312L38.1562 2.80469L37.8867 2.63672L37.6523 2.53516L37.3984 2.45312L37.0391 2.38672L36.6797 2.36719L36.3672 2.38672L36.0703 2.43359L35.7109 2.53516L35.4766 2.63672L35.2344 2.77734L35.0391 2.91797L34.8398 3.08984L34.6797 3.27344L34.4727 3.54688L34.3047 3.84375L34.1758 4.12891L34.0703 4.4375L34 4.71875L33.9531 4.99219L33.9062 5.32813L33.8789 5.78906V5.96875L33.9062 6.55078L33.9531 6.86328L34.0312 7.27344L34.1484 7.64844L34.2891 8.00781L34.4922 8.36328L34.6836 8.60547L34.875 8.81641L35.1016 9.01172L35.3164 9.15234L35.5195 9.26172L35.7227 9.33984L35.8906 9.39453L36.1055 9.44531L36.3633 9.48047L36.6094 9.5H36.8555L37.0781 9.48047L37.3477 9.44531L37.5859 9.39453L37.8164 9.31641L38.0469 9.21875L38.2695 9.09375L38.4648 8.94922L38.6445 8.77734L38.7812 8.60938L38.8945 8.43359L38.9922 8.23828L39.0898 7.99219L39.1523 7.69531L39.1914 7.44141V7.28516H36.8555Z" stroke="#B3CDE0" stroke-width="0.5"/>
<path fill-rule="evenodd" clip-rule="evenodd" d="M43.1368 11.3713V0.461167H47.5275H47.6564L48.1251 0.496324L48.465 0.543199L48.7071 0.601792L48.9415 0.664292L49.1681 0.734605L49.4064 0.824448L49.6251 0.941636L49.8673 1.07835L50.086 1.2346L50.2618 1.37132L50.4767 1.58226L50.6485 1.78929L50.8009 1.99632L50.9337 2.2346L51.0665 2.49242L51.1446 2.70726L51.2189 2.95335L51.2892 3.28929L51.3282 3.55882L51.3517 3.82835V4.08226V4.25023L51.3282 4.57836L51.2423 5.01586L51.1329 5.37914L50.9845 5.70336L50.8321 5.97289L50.6368 6.24632L50.4298 6.47289L50.215 6.66039L49.9767 6.83226L49.797 6.94945L49.6173 7.04711L49.422 7.12914L49.8673 7.94945L51.7345 11.3674H49.1954L47.129 7.50414H45.4376V11.3635L43.1368 11.3713ZM45.4415 2.34398V5.64867H47.2384L47.4767 5.62132L47.7892 5.57054L48.0392 5.49632L48.3048 5.37523L48.4532 5.26586L48.5978 5.14476L48.7189 4.97289L48.8556 4.74242L48.922 4.50414L48.965 4.17601V3.84007L48.9415 3.61742L48.8751 3.37132L48.8048 3.19945L48.7189 3.05882L48.6134 2.90257L48.4767 2.77757L48.3165 2.65257L48.1017 2.53929L47.8595 2.45726L47.6368 2.39867L47.379 2.36742L47.0626 2.34398H45.4415Z" stroke="#B3CDE0" stroke-width="0.5"/>
<path fill-rule="evenodd" clip-rule="evenodd" d="M52.4023 11.3906L56.168 0.476562H59.1406L62.8984 11.3906H60.4336L59.6211 8.90625H55.6797L54.875 11.3945L52.4023 11.3906ZM57.6094 2.97656L56.2695 7.10156L59.0312 7.09766L57.6953 2.97656H57.6094Z" stroke="#B3CDE0" stroke-width="0.5"/>
<path fill-rule="evenodd" clip-rule="evenodd" d="M77.3575 11.3947L81.1231 0.480628H84.0957L87.8536 11.3947H85.3887L84.5762 8.91032H80.6348L79.8301 11.3986L77.3575 11.3947ZM82.5645 2.98063L81.2246 7.10563L83.9864 7.10172L82.6504 2.98063H82.5645Z" stroke="#B3CDE0" stroke-width="0.5"/>
<path d="M64.2148 11.3867V0.484375H67.0547L70.0625 7.80859H70.1914L73.1914 0.484375H76.0352V11.3867H73.7969V4.29297H73.7031L70.8867 11.3359H69.3672L66.5391 4.26562H66.4492V11.3867H64.2148Z" stroke="#B3CDE0" stroke-width="0.5"/>
</svg>
