<svg width="89" height="13" viewBox="0 0 89 13" fill="none" xmlns="http://www.w3.org/2000/svg">
<path fill-rule="evenodd" clip-rule="evenodd" d="M0.449219 11.9922H2.75781L2.75391 8.46875H4.85938L5.13281 8.44922L5.5 8.41406L6.00391 8.31641L6.48438 8.16016L6.84375 8.00391L7.12109 7.83203L7.50391 7.55469L7.67578 7.39844L8 7.00781L8.19922 6.69141L8.34766 6.39844L8.46484 6.09766L8.52734 5.86719L8.60156 5.56641L8.63672 5.28125L8.65625 5.00391V4.68359L8.63672 4.30859L8.59375 4.00391L8.52344 3.67969L8.42578 3.38281L8.31641 3.10547L8.20312 2.875L8.05078 2.63281L7.84375 2.35547L7.64844 2.14453L7.37891 1.90234L7.14062 1.73437L6.92188 1.60547L6.67969 1.47656L6.48438 1.39062L6.28516 1.3125L5.98047 1.22266L5.75 1.17578L5.54297 1.14453L5.30078 1.11719L4.94922 1.09375H0.449219V11.9922ZM2.75391 2.97684V6.61008H4.57031L4.8125 6.57813L5.05859 6.52734L5.28906 6.44531L5.5 6.33594L5.67578 6.21094L5.81641 6.08594L6 5.85938L6.15234 5.55078L6.25391 5.21875L6.27344 5.01172L6.29297 4.78125L6.27344 4.52734L6.21101 4.18984L6.11859 3.94147L5.99152 3.71619L5.82978 3.50825L5.66227 3.35807L5.50054 3.2541L5.3388 3.16745L5.17129 3.10391L4.9749 3.04615L4.74385 3.00572L4.47237 2.97684H2.75391Z" fill="#D9D9D9"/>
<path fill-rule="evenodd" clip-rule="evenodd" d="M10.1602 12V1.08984H14.5508H14.6797L15.1484 1.125L15.4883 1.17187L15.7305 1.23047L15.9648 1.29297L16.1914 1.36328L16.4297 1.45312L16.6484 1.57031L16.8906 1.70703L17.1094 1.86328L17.2852 2L17.5 2.21094L17.6719 2.41797L17.8242 2.625L17.957 2.86328L18.0898 3.12109L18.168 3.33594L18.2422 3.58203L18.3125 3.91797L18.3516 4.1875L18.375 4.45703V4.71094V4.87891L18.3516 5.20703L18.2656 5.64453L18.1562 6.00781L18.0078 6.33203L17.8555 6.60156L17.6602 6.875L17.4531 7.10156L17.2383 7.28906L17 7.46094L16.8203 7.57813L16.6406 7.67578L16.4453 7.75781L16.8906 8.57813L18.7578 11.9961H16.2188L14.1523 8.13281H12.4609V11.9922L10.1602 12ZM12.4648 2.97266V6.27734H14.2617L14.5 6.25L14.8125 6.19922L15.0625 6.125L15.3281 6.00391L15.4766 5.89453L15.6211 5.77344L15.7422 5.60156L15.8789 5.37109L15.9453 5.13281L15.9883 4.80469V4.46875L15.9648 4.24609L15.8984 4L15.8281 3.82812L15.7422 3.6875L15.6367 3.53125L15.5 3.40625L15.3398 3.28125L15.125 3.16797L14.8828 3.08594L14.6602 3.02734L14.4023 2.99609L14.0859 2.97266H12.4648Z" fill="#D9D9D9"/>
<path fill-rule="evenodd" clip-rule="evenodd" d="M24.5078 12.1367L24.1289 12.0977L23.7891 12.0391L23.4531 11.9648L23.2266 11.8906L23.0352 11.8242L22.8203 11.7383L22.5391 11.6133L22.2891 11.4766L21.9883 11.2969L21.7383 11.1094L21.5039 10.9023L21.2695 10.6758L21.0391 10.418L20.8086 10.1016L20.5508 9.69531L20.3789 9.38281L20.2344 9.04688L20.1055 8.66406L20.0078 8.33203L19.9336 7.96484L19.8828 7.63672L19.8398 7.28125L19.8164 7.00781V6.66016V6.34375V6.03125L19.8398 5.76563L19.875 5.53125L19.9258 5.16016L19.9922 4.83203L20.1016 4.4375L20.2383 4.04297L20.4297 3.60938L20.6211 3.26953L20.8047 2.98828L21.043 2.66797L21.3477 2.32812L21.7109 2.00781L22.1172 1.71094L22.4922 1.5L22.8164 1.34766L23.1445 1.22266L23.4727 1.12109L23.8477 1.03906L24.2539 0.972656L24.6133 0.945312H25.0508H25.2695L25.6289 0.972656L25.875 1.01172L26.1797 1.08203L26.4688 1.15625L26.7773 1.25L27.0586 1.36328L27.3555 1.50781L27.6562 1.67969L27.9219 1.85156L28.1562 2.03125L28.3906 2.24219L28.5977 2.4375L28.8125 2.6875L29.0273 2.97266L29.2109 3.25781L29.3828 3.55469L29.5156 3.84375L29.6719 4.23828L29.7812 4.58594L29.8789 4.99219L29.9453 5.32813L29.9844 5.6875L30.0156 6.03516L30.0352 6.35547V6.69531L30.0156 7.03125L29.9922 7.36328L29.9453 7.72656L29.8984 8.01953L29.8125 8.41406L29.6641 8.87109L29.5273 9.22656L29.4102 9.48047L29.1953 9.87109L28.9961 10.1562L28.8125 10.3984L28.5195 10.7266L28.2305 10.9961L27.9727 11.1992L27.5156 11.5L27.0742 11.7148L26.6914 11.8711L26.4219 11.9492L26.0469 12.043L25.7422 12.0977L25.375 12.1367L25.0273 12.1562H24.7539L24.5078 12.1367ZM24.7812 10.1133H24.9609H25.0039L25.3203 10.0859L25.4805 10.0586L25.7852 9.98438L26.0703 9.86719L26.3477 9.71875L26.5508 9.57422L26.7695 9.37109L26.9609 9.15234L27.1328 8.90234L27.2852 8.62891L27.4453 8.23828L27.5547 7.86719L27.6289 7.50781L27.6602 7.14063L27.6836 6.71484V6.41406V6.16797L27.6602 5.87891L27.6289 5.63281L27.5859 5.37891L27.5117 5.0625L27.4297 4.81641L27.3516 4.625L27.2617 4.41797L27.1562 4.23047L27.0312 4.03516L26.9023 3.86719L26.7695 3.72266L26.6094 3.5625L26.4414 3.44141L26.2578 3.3125L26.0781 3.22656L25.9531 3.17188L25.7344 3.09375L25.5352 3.04297L25.293 3.00391L25.0938 2.98047H24.9219H24.7227L24.5039 3.00391L24.3008 3.04297L24.1133 3.09375L23.8867 3.17188L23.5938 3.3125L23.3125 3.5L23.0586 3.72266L22.8281 4L22.6289 4.30469L22.4883 4.60156L22.3672 4.93359L22.2812 5.26563L22.2266 5.54297L22.1875 5.82422L22.168 6.12109L22.1484 6.44531V6.75L22.168 7.05859L22.2031 7.41016L22.2578 7.75L22.3594 8.13672L22.4688 8.44141L22.5664 8.66406L22.7109 8.92187L22.8555 9.13281L23.0156 9.32422L23.3086 9.58594L23.5781 9.77344L23.8594 9.91016L24.1914 10.0234L24.5195 10.0859L24.7812 10.1133Z" fill="#D9D9D9"/>
<path d="M36.8555 7.89453V6.16016H41.4141V7.76172L41.3906 8.09766L41.3477 8.48047L41.3008 8.73438L41.2266 9.00781L41.1367 9.30859L41.0156 9.60156L40.8203 9.99219L40.6484 10.2695L40.4727 10.4922L40.3203 10.6797L40.1289 10.8828L39.918 11.0742L39.707 11.2383L39.3438 11.4844L39.0703 11.6328L38.832 11.7422L38.5742 11.8438L38.2422 11.9492L37.8828 12.0391L37.625 12.0781L37.3477 12.1172L37.0938 12.1367L36.8359 12.1562H36.5781L36.2891 12.1367L35.9844 12.1172L35.6914 12.0781L35.4883 12.0391L35.2031 11.9727L34.9375 11.8867L34.6094 11.7695L34.3516 11.6602L34.1484 11.5547L33.9414 11.4453L33.75 11.3164L33.5547 11.1875L33.3984 11.0508L33.1523 10.832L32.9258 10.6133L32.7578 10.418L32.5938 10.1992L32.4453 9.98438L32.2461 9.65625L32.0625 9.28516L31.8945 8.85547L31.7891 8.51953L31.707 8.16406L31.6445 7.82422L31.6055 7.57422L31.5742 7.32422L31.5469 6.72266V6.32813L31.5664 6.00781L31.5938 5.6875L31.6367 5.30078L31.7148 4.92578L31.8008 4.58594L31.875 4.33594L31.9688 4.08203L32.1094 3.74609L32.2891 3.41406L32.4922 3.07422L32.707 2.77734L32.9297 2.51172L33.1523 2.28516L33.3398 2.10547L33.5547 1.9375L33.8125 1.75391L34.125 1.5625L34.4297 1.41016L34.7422 1.27344L35.1758 1.13672L35.5391 1.04297L35.9727 0.976562L36.2461 0.953125L36.5039 0.933594H36.7422L37.0859 0.953125L37.4062 0.976562L37.6328 1.01953L37.8633 1.06641L38.1484 1.13672L38.4336 1.23437L38.6953 1.33203L38.9766 1.45703L39.2539 1.60156L39.4961 1.75391L39.7539 1.93359L39.9727 2.12109L40.168 2.30078L40.3477 2.5L40.5508 2.74609L40.7109 2.98047L40.8672 3.22656L41.0078 3.51953L41.1094 3.77344L41.1797 4L41.2227 4.14453L41.2812 4.41016L41.3164 4.62109H38.9727L38.918 4.44922L38.8477 4.27344L38.7656 4.10156L38.6523 3.91797L38.4844 3.71484L38.3359 3.5625L38.1562 3.41406L37.8867 3.24609L37.6523 3.14453L37.3984 3.0625L37.0391 2.99609L36.6797 2.97656L36.3672 2.99609L36.0703 3.04297L35.7109 3.14453L35.4766 3.24609L35.2344 3.38672L35.0391 3.52734L34.8398 3.69922L34.6797 3.88281L34.4727 4.15625L34.3047 4.45312L34.1758 4.73828L34.0703 5.04688L34 5.32813L33.9531 5.60156L33.9062 5.9375L33.8789 6.39844V6.57813L33.9062 7.16016L33.9531 7.47266L34.0312 7.88281L34.1484 8.25781L34.2891 8.61719L34.4922 8.97266L34.6836 9.21484L34.875 9.42578L35.1016 9.62109L35.3164 9.76172L35.5195 9.87109L35.7227 9.94922L35.8906 10.0039L36.1055 10.0547L36.3633 10.0898L36.6094 10.1094H36.8555L37.0781 10.0898L37.3477 10.0547L37.5859 10.0039L37.8164 9.92578L38.0469 9.82812L38.2695 9.70312L38.4648 9.55859L38.6445 9.38672L38.7812 9.21875L38.8945 9.04297L38.9922 8.84766L39.0898 8.60156L39.1523 8.30469L39.1914 8.05078V7.89453H36.8555Z" fill="#D9D9D9"/>
<path fill-rule="evenodd" clip-rule="evenodd" d="M43.1368 11.9807V1.07054H47.5275H47.6564L48.1251 1.1057L48.465 1.15257L48.7071 1.21117L48.9415 1.27367L49.1681 1.34398L49.4064 1.43382L49.6251 1.55101L49.8673 1.68773L50.086 1.84398L50.2618 1.9807L50.4767 2.19164L50.6485 2.39867L50.8009 2.6057L50.9337 2.84398L51.0665 3.10179L51.1446 3.31664L51.2189 3.56273L51.2892 3.89867L51.3282 4.1682L51.3517 4.43773V4.69164V4.85961L51.3282 5.18773L51.2423 5.62523L51.1329 5.98851L50.9845 6.31273L50.8321 6.58226L50.6368 6.8557L50.4298 7.08226L50.215 7.26976L49.9767 7.44164L49.797 7.55882L49.6173 7.65648L49.422 7.73851L49.8673 8.55882L51.7345 11.9768H49.1954L47.129 8.11351H45.4376V11.9729L43.1368 11.9807ZM45.4415 2.95335V6.25804H47.2384L47.4767 6.2307L47.7892 6.17992L48.0392 6.1057L48.3048 5.98461L48.4532 5.87523L48.5978 5.75414L48.7189 5.58226L48.8556 5.35179L48.922 5.11351L48.965 4.78539V4.44945L48.9415 4.22679L48.8751 3.9807L48.8048 3.80882L48.7189 3.6682L48.6134 3.51195L48.4767 3.38695L48.3165 3.26195L48.1017 3.14867L47.8595 3.06664L47.6368 3.00804L47.379 2.97679L47.0626 2.95335H45.4415Z" fill="#D9D9D9"/>
<path fill-rule="evenodd" clip-rule="evenodd" d="M52.4023 12L56.168 1.08594H59.1406L62.8984 12H60.4336L59.6211 9.51562H55.6797L54.875 12.0039L52.4023 12ZM57.6094 3.58594L56.2695 7.71094L59.0312 7.70703L57.6953 3.58594H57.6094Z" fill="#D9D9D9"/>
<path fill-rule="evenodd" clip-rule="evenodd" d="M77.3575 12.0041L81.1231 1.09H84.0957L87.8536 12.0041H85.3887L84.5762 9.51969H80.6348L79.8301 12.008L77.3575 12.0041ZM82.5645 3.59L81.2246 7.715L83.9864 7.7111L82.6504 3.59H82.5645Z" fill="#D9D9D9"/>
<path d="M64.2148 11.9961V1.09375H67.0547L70.0625 8.41797H70.1914L73.1914 1.09375H76.0352V11.9961H73.7969V4.90234H73.7031L70.8867 11.9453H69.3672L66.5391 4.875H66.4492V11.9961H64.2148Z" fill="#D9D9D9"/>
<path fill-rule="evenodd" clip-rule="evenodd" d="M0.449219 11.9922H2.75781L2.75391 8.46875H4.85938L5.13281 8.44922L5.5 8.41406L6.00391 8.31641L6.48438 8.16016L6.84375 8.00391L7.12109 7.83203L7.50391 7.55469L7.67578 7.39844L8 7.00781L8.19922 6.69141L8.34766 6.39844L8.46484 6.09766L8.52734 5.86719L8.60156 5.56641L8.63672 5.28125L8.65625 5.00391V4.68359L8.63672 4.30859L8.59375 4.00391L8.52344 3.67969L8.42578 3.38281L8.31641 3.10547L8.20312 2.875L8.05078 2.63281L7.84375 2.35547L7.64844 2.14453L7.37891 1.90234L7.14062 1.73437L6.92188 1.60547L6.67969 1.47656L6.48438 1.39062L6.28516 1.3125L5.98047 1.22266L5.75 1.17578L5.54297 1.14453L5.30078 1.11719L4.94922 1.09375H0.449219V11.9922ZM2.75391 2.97684V6.61008H4.57031L4.8125 6.57813L5.05859 6.52734L5.28906 6.44531L5.5 6.33594L5.67578 6.21094L5.81641 6.08594L6 5.85938L6.15234 5.55078L6.25391 5.21875L6.27344 5.01172L6.29297 4.78125L6.27344 4.52734L6.21101 4.18984L6.11859 3.94147L5.99152 3.71619L5.82978 3.50825L5.66227 3.35807L5.50054 3.2541L5.3388 3.16745L5.17129 3.10391L4.9749 3.04615L4.74385 3.00572L4.47237 2.97684H2.75391Z" stroke="#B3CDE0" stroke-width="0.5"/>
<path fill-rule="evenodd" clip-rule="evenodd" d="M10.1602 12V1.08984H14.5508H14.6797L15.1484 1.125L15.4883 1.17187L15.7305 1.23047L15.9648 1.29297L16.1914 1.36328L16.4297 1.45312L16.6484 1.57031L16.8906 1.70703L17.1094 1.86328L17.2852 2L17.5 2.21094L17.6719 2.41797L17.8242 2.625L17.957 2.86328L18.0898 3.12109L18.168 3.33594L18.2422 3.58203L18.3125 3.91797L18.3516 4.1875L18.375 4.45703V4.71094V4.87891L18.3516 5.20703L18.2656 5.64453L18.1562 6.00781L18.0078 6.33203L17.8555 6.60156L17.6602 6.875L17.4531 7.10156L17.2383 7.28906L17 7.46094L16.8203 7.57813L16.6406 7.67578L16.4453 7.75781L16.8906 8.57813L18.7578 11.9961H16.2188L14.1523 8.13281H12.4609V11.9922L10.1602 12ZM12.4648 2.97266V6.27734H14.2617L14.5 6.25L14.8125 6.19922L15.0625 6.125L15.3281 6.00391L15.4766 5.89453L15.6211 5.77344L15.7422 5.60156L15.8789 5.37109L15.9453 5.13281L15.9883 4.80469V4.46875L15.9648 4.24609L15.8984 4L15.8281 3.82812L15.7422 3.6875L15.6367 3.53125L15.5 3.40625L15.3398 3.28125L15.125 3.16797L14.8828 3.08594L14.6602 3.02734L14.4023 2.99609L14.0859 2.97266H12.4648Z" stroke="#B3CDE0" stroke-width="0.5"/>
<path fill-rule="evenodd" clip-rule="evenodd" d="M24.5078 12.1367L24.1289 12.0977L23.7891 12.0391L23.4531 11.9648L23.2266 11.8906L23.0352 11.8242L22.8203 11.7383L22.5391 11.6133L22.2891 11.4766L21.9883 11.2969L21.7383 11.1094L21.5039 10.9023L21.2695 10.6758L21.0391 10.418L20.8086 10.1016L20.5508 9.69531L20.3789 9.38281L20.2344 9.04688L20.1055 8.66406L20.0078 8.33203L19.9336 7.96484L19.8828 7.63672L19.8398 7.28125L19.8164 7.00781V6.66016V6.34375V6.03125L19.8398 5.76563L19.875 5.53125L19.9258 5.16016L19.9922 4.83203L20.1016 4.4375L20.2383 4.04297L20.4297 3.60938L20.6211 3.26953L20.8047 2.98828L21.043 2.66797L21.3477 2.32812L21.7109 2.00781L22.1172 1.71094L22.4922 1.5L22.8164 1.34766L23.1445 1.22266L23.4727 1.12109L23.8477 1.03906L24.2539 0.972656L24.6133 0.945312H25.0508H25.2695L25.6289 0.972656L25.875 1.01172L26.1797 1.08203L26.4688 1.15625L26.7773 1.25L27.0586 1.36328L27.3555 1.50781L27.6562 1.67969L27.9219 1.85156L28.1562 2.03125L28.3906 2.24219L28.5977 2.4375L28.8125 2.6875L29.0273 2.97266L29.2109 3.25781L29.3828 3.55469L29.5156 3.84375L29.6719 4.23828L29.7812 4.58594L29.8789 4.99219L29.9453 5.32813L29.9844 5.6875L30.0156 6.03516L30.0352 6.35547V6.69531L30.0156 7.03125L29.9922 7.36328L29.9453 7.72656L29.8984 8.01953L29.8125 8.41406L29.6641 8.87109L29.5273 9.22656L29.4102 9.48047L29.1953 9.87109L28.9961 10.1562L28.8125 10.3984L28.5195 10.7266L28.2305 10.9961L27.9727 11.1992L27.5156 11.5L27.0742 11.7148L26.6914 11.8711L26.4219 11.9492L26.0469 12.043L25.7422 12.0977L25.375 12.1367L25.0273 12.1562H24.7539L24.5078 12.1367ZM24.7812 10.1133H24.9609H25.0039L25.3203 10.0859L25.4805 10.0586L25.7852 9.98438L26.0703 9.86719L26.3477 9.71875L26.5508 9.57422L26.7695 9.37109L26.9609 9.15234L27.1328 8.90234L27.2852 8.62891L27.4453 8.23828L27.5547 7.86719L27.6289 7.50781L27.6602 7.14063L27.6836 6.71484V6.41406V6.16797L27.6602 5.87891L27.6289 5.63281L27.5859 5.37891L27.5117 5.0625L27.4297 4.81641L27.3516 4.625L27.2617 4.41797L27.1562 4.23047L27.0312 4.03516L26.9023 3.86719L26.7695 3.72266L26.6094 3.5625L26.4414 3.44141L26.2578 3.3125L26.0781 3.22656L25.9531 3.17188L25.7344 3.09375L25.5352 3.04297L25.293 3.00391L25.0938 2.98047H24.9219H24.7227L24.5039 3.00391L24.3008 3.04297L24.1133 3.09375L23.8867 3.17188L23.5938 3.3125L23.3125 3.5L23.0586 3.72266L22.8281 4L22.6289 4.30469L22.4883 4.60156L22.3672 4.93359L22.2812 5.26563L22.2266 5.54297L22.1875 5.82422L22.168 6.12109L22.1484 6.44531V6.75L22.168 7.05859L22.2031 7.41016L22.2578 7.75L22.3594 8.13672L22.4688 8.44141L22.5664 8.66406L22.7109 8.92187L22.8555 9.13281L23.0156 9.32422L23.3086 9.58594L23.5781 9.77344L23.8594 9.91016L24.1914 10.0234L24.5195 10.0859L24.7812 10.1133Z" stroke="#B3CDE0" stroke-width="0.5"/>
<path d="M36.8555 7.89453V6.16016H41.4141V7.76172L41.3906 8.09766L41.3477 8.48047L41.3008 8.73438L41.2266 9.00781L41.1367 9.30859L41.0156 9.60156L40.8203 9.99219L40.6484 10.2695L40.4727 10.4922L40.3203 10.6797L40.1289 10.8828L39.918 11.0742L39.707 11.2383L39.3438 11.4844L39.0703 11.6328L38.832 11.7422L38.5742 11.8438L38.2422 11.9492L37.8828 12.0391L37.625 12.0781L37.3477 12.1172L37.0938 12.1367L36.8359 12.1562H36.5781L36.2891 12.1367L35.9844 12.1172L35.6914 12.0781L35.4883 12.0391L35.2031 11.9727L34.9375 11.8867L34.6094 11.7695L34.3516 11.6602L34.1484 11.5547L33.9414 11.4453L33.75 11.3164L33.5547 11.1875L33.3984 11.0508L33.1523 10.832L32.9258 10.6133L32.7578 10.418L32.5938 10.1992L32.4453 9.98438L32.2461 9.65625L32.0625 9.28516L31.8945 8.85547L31.7891 8.51953L31.707 8.16406L31.6445 7.82422L31.6055 7.57422L31.5742 7.32422L31.5469 6.72266V6.32813L31.5664 6.00781L31.5938 5.6875L31.6367 5.30078L31.7148 4.92578L31.8008 4.58594L31.875 4.33594L31.9688 4.08203L32.1094 3.74609L32.2891 3.41406L32.4922 3.07422L32.707 2.77734L32.9297 2.51172L33.1523 2.28516L33.3398 2.10547L33.5547 1.9375L33.8125 1.75391L34.125 1.5625L34.4297 1.41016L34.7422 1.27344L35.1758 1.13672L35.5391 1.04297L35.9727 0.976562L36.2461 0.953125L36.5039 0.933594H36.7422L37.0859 0.953125L37.4062 0.976562L37.6328 1.01953L37.8633 1.06641L38.1484 1.13672L38.4336 1.23437L38.6953 1.33203L38.9766 1.45703L39.2539 1.60156L39.4961 1.75391L39.7539 1.93359L39.9727 2.12109L40.168 2.30078L40.3477 2.5L40.5508 2.74609L40.7109 2.98047L40.8672 3.22656L41.0078 3.51953L41.1094 3.77344L41.1797 4L41.2227 4.14453L41.2812 4.41016L41.3164 4.62109H38.9727L38.918 4.44922L38.8477 4.27344L38.7656 4.10156L38.6523 3.91797L38.4844 3.71484L38.3359 3.5625L38.1562 3.41406L37.8867 3.24609L37.6523 3.14453L37.3984 3.0625L37.0391 2.99609L36.6797 2.97656L36.3672 2.99609L36.0703 3.04297L35.7109 3.14453L35.4766 3.24609L35.2344 3.38672L35.0391 3.52734L34.8398 3.69922L34.6797 3.88281L34.4727 4.15625L34.3047 4.45312L34.1758 4.73828L34.0703 5.04688L34 5.32813L33.9531 5.60156L33.9062 5.9375L33.8789 6.39844V6.57813L33.9062 7.16016L33.9531 7.47266L34.0312 7.88281L34.1484 8.25781L34.2891 8.61719L34.4922 8.97266L34.6836 9.21484L34.875 9.42578L35.1016 9.62109L35.3164 9.76172L35.5195 9.87109L35.7227 9.94922L35.8906 10.0039L36.1055 10.0547L36.3633 10.0898L36.6094 10.1094H36.8555L37.0781 10.0898L37.3477 10.0547L37.5859 10.0039L37.8164 9.92578L38.0469 9.82812L38.2695 9.70312L38.4648 9.55859L38.6445 9.38672L38.7812 9.21875L38.8945 9.04297L38.9922 8.84766L39.0898 8.60156L39.1523 8.30469L39.1914 8.05078V7.89453H36.8555Z" stroke="#B3CDE0" stroke-width="0.5"/>
<path fill-rule="evenodd" clip-rule="evenodd" d="M43.1368 11.9807V1.07054H47.5275H47.6564L48.1251 1.1057L48.465 1.15257L48.7071 1.21117L48.9415 1.27367L49.1681 1.34398L49.4064 1.43382L49.6251 1.55101L49.8673 1.68773L50.086 1.84398L50.2618 1.9807L50.4767 2.19164L50.6485 2.39867L50.8009 2.6057L50.9337 2.84398L51.0665 3.10179L51.1446 3.31664L51.2189 3.56273L51.2892 3.89867L51.3282 4.1682L51.3517 4.43773V4.69164V4.85961L51.3282 5.18773L51.2423 5.62523L51.1329 5.98851L50.9845 6.31273L50.8321 6.58226L50.6368 6.8557L50.4298 7.08226L50.215 7.26976L49.9767 7.44164L49.797 7.55882L49.6173 7.65648L49.422 7.73851L49.8673 8.55882L51.7345 11.9768H49.1954L47.129 8.11351H45.4376V11.9729L43.1368 11.9807ZM45.4415 2.95335V6.25804H47.2384L47.4767 6.2307L47.7892 6.17992L48.0392 6.1057L48.3048 5.98461L48.4532 5.87523L48.5978 5.75414L48.7189 5.58226L48.8556 5.35179L48.922 5.11351L48.965 4.78539V4.44945L48.9415 4.22679L48.8751 3.9807L48.8048 3.80882L48.7189 3.6682L48.6134 3.51195L48.4767 3.38695L48.3165 3.26195L48.1017 3.14867L47.8595 3.06664L47.6368 3.00804L47.379 2.97679L47.0626 2.95335H45.4415Z" stroke="#B3CDE0" stroke-width="0.5"/>
<path fill-rule="evenodd" clip-rule="evenodd" d="M52.4023 12L56.168 1.08594H59.1406L62.8984 12H60.4336L59.6211 9.51562H55.6797L54.875 12.0039L52.4023 12ZM57.6094 3.58594L56.2695 7.71094L59.0312 7.70703L57.6953 3.58594H57.6094Z" stroke="#B3CDE0" stroke-width="0.5"/>
<path fill-rule="evenodd" clip-rule="evenodd" d="M77.3575 12.0041L81.1231 1.09H84.0957L87.8536 12.0041H85.3887L84.5762 9.51969H80.6348L79.8301 12.008L77.3575 12.0041ZM82.5645 3.59L81.2246 7.715L83.9864 7.7111L82.6504 3.59H82.5645Z" stroke="#B3CDE0" stroke-width="0.5"/>
<path d="M64.2148 11.9961V1.09375H67.0547L70.0625 8.41797H70.1914L73.1914 1.09375H76.0352V11.9961H73.7969V4.90234H73.7031L70.8867 11.9453H69.3672L66.5391 4.875H66.4492V11.9961H64.2148Z" stroke="#B3CDE0" stroke-width="0.5"/>
</svg>
